<?xml version="1.0" encoding="utf-8"?>
<svg xmlns="http://www.w3.org/2000/svg" xmlns:xlink="http://www.w3.org/1999/xlink" width="400" height="300" viewBox="0 0 1600 1200">
<defs>
  <clipPath id="clip180">
    <rect x="0" y="0" width="1600" height="1200"/>
  </clipPath>
</defs>
<path clip-path="url(#clip180)" d="M0 1200 L1600 1200 L1600 0 L0 0  Z" fill="#ffffff" fill-rule="evenodd" fill-opacity="1"/>
<defs>
  <clipPath id="clip181">
    <rect x="320" y="0" width="1121" height="1121"/>
  </clipPath>
</defs>
<path clip-path="url(#clip180)" d="M104.177 1086.13 L1552.76 1086.13 L1552.76 47.2441 L104.177 47.2441  Z" fill="#ffffff" fill-rule="evenodd" fill-opacity="1"/>
<defs>
  <clipPath id="clip182">
    <rect x="104" y="47" width="1450" height="1040"/>
  </clipPath>
</defs>
<polyline clip-path="url(#clip182)" style="stroke:#000000; stroke-linecap:round; stroke-linejoin:round; stroke-width:2; stroke-opacity:0.1; fill:none" points="145.175,1086.13 145.175,47.2441 "/>
<polyline clip-path="url(#clip182)" style="stroke:#000000; stroke-linecap:round; stroke-linejoin:round; stroke-width:2; stroke-opacity:0.1; fill:none" points="486.821,1086.13 486.821,47.2441 "/>
<polyline clip-path="url(#clip182)" style="stroke:#000000; stroke-linecap:round; stroke-linejoin:round; stroke-width:2; stroke-opacity:0.1; fill:none" points="828.467,1086.13 828.467,47.2441 "/>
<polyline clip-path="url(#clip182)" style="stroke:#000000; stroke-linecap:round; stroke-linejoin:round; stroke-width:2; stroke-opacity:0.1; fill:none" points="1170.11,1086.13 1170.11,47.2441 "/>
<polyline clip-path="url(#clip182)" style="stroke:#000000; stroke-linecap:round; stroke-linejoin:round; stroke-width:2; stroke-opacity:0.1; fill:none" points="1511.76,1086.13 1511.76,47.2441 "/>
<polyline clip-path="url(#clip180)" style="stroke:#000000; stroke-linecap:round; stroke-linejoin:round; stroke-width:4; stroke-opacity:1; fill:none" points="104.177,1086.13 1552.76,1086.13 "/>
<polyline clip-path="url(#clip180)" style="stroke:#000000; stroke-linecap:round; stroke-linejoin:round; stroke-width:4; stroke-opacity:1; fill:none" points="145.175,1086.13 145.175,1067.23 "/>
<polyline clip-path="url(#clip180)" style="stroke:#000000; stroke-linecap:round; stroke-linejoin:round; stroke-width:4; stroke-opacity:1; fill:none" points="486.821,1086.13 486.821,1067.23 "/>
<polyline clip-path="url(#clip180)" style="stroke:#000000; stroke-linecap:round; stroke-linejoin:round; stroke-width:4; stroke-opacity:1; fill:none" points="828.467,1086.13 828.467,1067.23 "/>
<polyline clip-path="url(#clip180)" style="stroke:#000000; stroke-linecap:round; stroke-linejoin:round; stroke-width:4; stroke-opacity:1; fill:none" points="1170.11,1086.13 1170.11,1067.23 "/>
<polyline clip-path="url(#clip180)" style="stroke:#000000; stroke-linecap:round; stroke-linejoin:round; stroke-width:4; stroke-opacity:1; fill:none" points="1511.76,1086.13 1511.76,1067.23 "/>
<path clip-path="url(#clip180)" d="M145.175 1110.65 Q141.564 1110.65 139.735 1114.21 Q137.929 1117.75 137.929 1124.88 Q137.929 1131.99 139.735 1135.55 Q141.564 1139.1 145.175 1139.1 Q148.809 1139.1 150.614 1135.55 Q152.443 1131.99 152.443 1124.88 Q152.443 1117.75 150.614 1114.21 Q148.809 1110.65 145.175 1110.65 M145.175 1106.94 Q150.985 1106.94 154.04 1111.55 Q157.119 1116.13 157.119 1124.88 Q157.119 1133.61 154.04 1138.22 Q150.985 1142.8 145.175 1142.8 Q139.365 1142.8 136.286 1138.22 Q133.23 1133.61 133.23 1124.88 Q133.23 1116.13 136.286 1111.55 Q139.365 1106.94 145.175 1106.94 Z" fill="#000000" fill-rule="nonzero" fill-opacity="1" /><path clip-path="url(#clip180)" d="M477.203 1138.19 L484.841 1138.19 L484.841 1111.83 L476.531 1113.49 L476.531 1109.23 L484.795 1107.57 L489.471 1107.57 L489.471 1138.19 L497.11 1138.19 L497.11 1142.13 L477.203 1142.13 L477.203 1138.19 Z" fill="#000000" fill-rule="nonzero" fill-opacity="1" /><path clip-path="url(#clip180)" d="M823.119 1138.19 L839.439 1138.19 L839.439 1142.13 L817.494 1142.13 L817.494 1138.19 Q820.156 1135.44 824.74 1130.81 Q829.346 1126.16 830.527 1124.81 Q832.772 1122.29 833.652 1120.55 Q834.554 1118.79 834.554 1117.1 Q834.554 1114.35 832.61 1112.61 Q830.689 1110.88 827.587 1110.88 Q825.388 1110.88 822.934 1111.64 Q820.504 1112.41 817.726 1113.96 L817.726 1109.23 Q820.55 1108.1 823.004 1107.52 Q825.457 1106.94 827.494 1106.94 Q832.865 1106.94 836.059 1109.63 Q839.254 1112.31 839.254 1116.8 Q839.254 1118.93 838.443 1120.85 Q837.656 1122.75 835.55 1125.35 Q834.971 1126.02 831.869 1129.23 Q828.767 1132.43 823.119 1138.19 Z" fill="#000000" fill-rule="nonzero" fill-opacity="1" /><path clip-path="url(#clip180)" d="M1174.36 1123.49 Q1177.72 1124.21 1179.59 1126.48 Q1181.49 1128.75 1181.49 1132.08 Q1181.49 1137.2 1177.97 1140 Q1174.45 1142.8 1167.97 1142.8 Q1165.8 1142.8 1163.48 1142.36 Q1161.19 1141.94 1158.74 1141.09 L1158.74 1136.57 Q1160.68 1137.71 1162.99 1138.29 Q1165.31 1138.86 1167.83 1138.86 Q1172.23 1138.86 1174.52 1137.13 Q1176.84 1135.39 1176.84 1132.08 Q1176.84 1129.03 1174.68 1127.31 Q1172.55 1125.58 1168.74 1125.58 L1164.71 1125.58 L1164.71 1121.73 L1168.92 1121.73 Q1172.37 1121.73 1174.2 1120.37 Q1176.03 1118.98 1176.03 1116.39 Q1176.03 1113.73 1174.13 1112.31 Q1172.25 1110.88 1168.74 1110.88 Q1166.81 1110.88 1164.61 1111.29 Q1162.42 1111.71 1159.78 1112.59 L1159.78 1108.42 Q1162.44 1107.68 1164.75 1107.31 Q1167.09 1106.94 1169.15 1106.94 Q1174.48 1106.94 1177.58 1109.37 Q1180.68 1111.78 1180.68 1115.9 Q1180.68 1118.77 1179.04 1120.76 Q1177.39 1122.73 1174.36 1123.49 Z" fill="#000000" fill-rule="nonzero" fill-opacity="1" /><path clip-path="url(#clip180)" d="M1514.77 1111.64 L1502.96 1130.09 L1514.77 1130.09 L1514.77 1111.64 M1513.54 1107.57 L1519.42 1107.57 L1519.42 1130.09 L1524.35 1130.09 L1524.35 1133.98 L1519.42 1133.98 L1519.42 1142.13 L1514.77 1142.13 L1514.77 1133.98 L1499.17 1133.98 L1499.17 1129.47 L1513.54 1107.57 Z" fill="#000000" fill-rule="nonzero" fill-opacity="1" /><polyline clip-path="url(#clip182)" style="stroke:#000000; stroke-linecap:round; stroke-linejoin:round; stroke-width:2; stroke-opacity:0.1; fill:none" points="104.177,1056.73 1552.76,1056.73 "/>
<polyline clip-path="url(#clip182)" style="stroke:#000000; stroke-linecap:round; stroke-linejoin:round; stroke-width:2; stroke-opacity:0.1; fill:none" points="104.177,811.706 1552.76,811.706 "/>
<polyline clip-path="url(#clip182)" style="stroke:#000000; stroke-linecap:round; stroke-linejoin:round; stroke-width:2; stroke-opacity:0.1; fill:none" points="104.177,566.686 1552.76,566.686 "/>
<polyline clip-path="url(#clip182)" style="stroke:#000000; stroke-linecap:round; stroke-linejoin:round; stroke-width:2; stroke-opacity:0.1; fill:none" points="104.177,321.666 1552.76,321.666 "/>
<polyline clip-path="url(#clip182)" style="stroke:#000000; stroke-linecap:round; stroke-linejoin:round; stroke-width:2; stroke-opacity:0.1; fill:none" points="104.177,76.6465 1552.76,76.6465 "/>
<polyline clip-path="url(#clip180)" style="stroke:#000000; stroke-linecap:round; stroke-linejoin:round; stroke-width:4; stroke-opacity:1; fill:none" points="104.177,1086.13 104.177,47.2441 "/>
<polyline clip-path="url(#clip180)" style="stroke:#000000; stroke-linecap:round; stroke-linejoin:round; stroke-width:4; stroke-opacity:1; fill:none" points="104.177,1056.73 123.075,1056.73 "/>
<polyline clip-path="url(#clip180)" style="stroke:#000000; stroke-linecap:round; stroke-linejoin:round; stroke-width:4; stroke-opacity:1; fill:none" points="104.177,811.706 123.075,811.706 "/>
<polyline clip-path="url(#clip180)" style="stroke:#000000; stroke-linecap:round; stroke-linejoin:round; stroke-width:4; stroke-opacity:1; fill:none" points="104.177,566.686 123.075,566.686 "/>
<polyline clip-path="url(#clip180)" style="stroke:#000000; stroke-linecap:round; stroke-linejoin:round; stroke-width:4; stroke-opacity:1; fill:none" points="104.177,321.666 123.075,321.666 "/>
<polyline clip-path="url(#clip180)" style="stroke:#000000; stroke-linecap:round; stroke-linejoin:round; stroke-width:4; stroke-opacity:1; fill:none" points="104.177,76.6465 123.075,76.6465 "/>
<path clip-path="url(#clip180)" d="M68.2328 1042.52 Q64.6217 1042.52 62.793 1046.09 Q60.9875 1049.63 60.9875 1056.76 Q60.9875 1063.87 62.793 1067.43 Q64.6217 1070.97 68.2328 1070.97 Q71.867 1070.97 73.6726 1067.43 Q75.5013 1063.87 75.5013 1056.76 Q75.5013 1049.63 73.6726 1046.09 Q71.867 1042.52 68.2328 1042.52 M68.2328 1038.82 Q74.0429 1038.82 77.0985 1043.43 Q80.1772 1048.01 80.1772 1056.76 Q80.1772 1065.49 77.0985 1070.09 Q74.0429 1074.68 68.2328 1074.68 Q62.4226 1074.68 59.344 1070.09 Q56.2884 1065.49 56.2884 1056.76 Q56.2884 1048.01 59.344 1043.43 Q62.4226 1038.82 68.2328 1038.82 Z" fill="#000000" fill-rule="nonzero" fill-opacity="1" /><path clip-path="url(#clip180)" d="M60.2699 825.051 L67.9087 825.051 L67.9087 798.685 L59.5986 800.352 L59.5986 796.092 L67.8624 794.426 L72.5383 794.426 L72.5383 825.051 L80.1772 825.051 L80.1772 828.986 L60.2699 828.986 L60.2699 825.051 Z" fill="#000000" fill-rule="nonzero" fill-opacity="1" /><path clip-path="url(#clip180)" d="M63.8578 580.031 L80.1772 580.031 L80.1772 583.966 L58.2328 583.966 L58.2328 580.031 Q60.8949 577.276 65.4782 572.647 Q70.0846 567.994 71.2652 566.651 Q73.5105 564.128 74.3902 562.392 Q75.2929 560.633 75.2929 558.943 Q75.2929 556.188 73.3485 554.452 Q71.4272 552.716 68.3254 552.716 Q66.1263 552.716 63.6726 553.48 Q61.2421 554.244 58.4643 555.795 L58.4643 551.073 Q61.2884 549.938 63.7421 549.36 Q66.1958 548.781 68.2328 548.781 Q73.6031 548.781 76.7976 551.466 Q79.992 554.151 79.992 558.642 Q79.992 560.772 79.1818 562.693 Q78.3948 564.591 76.2883 567.184 Q75.7096 567.855 72.6078 571.073 Q69.5059 574.267 63.8578 580.031 Z" fill="#000000" fill-rule="nonzero" fill-opacity="1" /><path clip-path="url(#clip180)" d="M73.0476 320.312 Q76.404 321.03 78.279 323.298 Q80.1772 325.567 80.1772 328.9 Q80.1772 334.016 76.6587 336.817 Q73.1402 339.618 66.6587 339.618 Q64.4828 339.618 62.168 339.178 Q59.8764 338.761 57.4227 337.905 L57.4227 333.391 Q59.3671 334.525 61.6819 335.104 Q63.9967 335.682 66.5198 335.682 Q70.918 335.682 73.2096 333.946 Q75.5244 332.21 75.5244 328.9 Q75.5244 325.844 73.3717 324.131 Q71.242 322.395 67.4226 322.395 L63.3949 322.395 L63.3949 318.553 L67.6078 318.553 Q71.0569 318.553 72.8855 317.187 Q74.7142 315.798 74.7142 313.206 Q74.7142 310.544 72.8161 309.132 Q70.9411 307.696 67.4226 307.696 Q65.5013 307.696 63.3023 308.113 Q61.1032 308.53 58.4643 309.409 L58.4643 305.243 Q61.1264 304.502 63.4412 304.132 Q65.7791 303.761 67.8393 303.761 Q73.1633 303.761 76.2652 306.192 Q79.367 308.599 79.367 312.72 Q79.367 315.59 77.7235 317.581 Q76.08 319.548 73.0476 320.312 Z" fill="#000000" fill-rule="nonzero" fill-opacity="1" /><path clip-path="url(#clip180)" d="M70.5939 63.4405 L58.7884 81.8895 L70.5939 81.8895 L70.5939 63.4405 M69.367 59.3665 L75.2466 59.3665 L75.2466 81.8895 L80.1772 81.8895 L80.1772 85.7784 L75.2466 85.7784 L75.2466 93.9265 L70.5939 93.9265 L70.5939 85.7784 L54.9921 85.7784 L54.9921 81.2645 L69.367 59.3665 Z" fill="#000000" fill-rule="nonzero" fill-opacity="1" /><polyline clip-path="url(#clip182)" style="stroke:#fbaa0e; stroke-linecap:round; stroke-linejoin:round; stroke-width:4; stroke-opacity:1; fill:none" points="216.189,1056.73 145.175,1005.8 "/>
<polyline clip-path="url(#clip182)" style="stroke:#f8c931; stroke-linecap:round; stroke-linejoin:round; stroke-width:4; stroke-opacity:1; fill:none" points="192.517,1056.73 145.175,1022.77 "/>
<polyline clip-path="url(#clip182)" style="stroke:#f1e864; stroke-linecap:round; stroke-linejoin:round; stroke-width:4; stroke-opacity:1; fill:none" points="168.846,1056.73 145.175,1039.75 "/>
<polyline clip-path="url(#clip182)" style="stroke:#f0701e; stroke-linecap:round; stroke-linejoin:round; stroke-width:4; stroke-opacity:1; fill:none" points="274.412,1056.73 217.1,1015.62 202.486,1005.14 145.175,964.04 "/>
<polyline clip-path="url(#clip182)" style="stroke:#f98c09; stroke-linecap:round; stroke-linejoin:round; stroke-width:4; stroke-opacity:1; fill:none" points="145.175,984.994 173.268,1005.14 217.1,1036.58 245.194,1056.73 "/>
<polyline clip-path="url(#clip182)" style="stroke:#d04544; stroke-linecap:round; stroke-linejoin:round; stroke-width:4; stroke-opacity:1; fill:none" points="343.117,1056.73 289.026,1017.93 271.192,1005.14 217.1,966.349 199.266,953.559 145.175,914.766 "/>
<polyline clip-path="url(#clip182)" style="stroke:#e35832; stroke-linecap:round; stroke-linejoin:round; stroke-width:4; stroke-opacity:1; fill:none" points="145.175,940.631 163.202,953.559 217.1,992.214 235.127,1005.14 289.026,1043.8 307.052,1056.73 "/>
<polyline clip-path="url(#clip182)" style="stroke:#a12b61; stroke-linecap:round; stroke-linejoin:round; stroke-width:4; stroke-opacity:1; fill:none" points="427.97,1056.73 360.951,1008.66 356.045,1005.14 289.026,957.078 284.119,953.559 217.1,905.495 212.194,901.976 145.175,853.912 "/>
<polyline clip-path="url(#clip182)" style="stroke:#ba3655; stroke-linecap:round; stroke-linejoin:round; stroke-width:4; stroke-opacity:1; fill:none" points="145.175,885.837 167.678,901.976 217.1,937.421 239.603,953.559 289.026,989.004 311.529,1005.14 360.951,1040.59 383.454,1056.73 "/>
<polyline clip-path="url(#clip182)" style="stroke:#88216a; stroke-linecap:round; stroke-linejoin:round; stroke-width:4; stroke-opacity:1; fill:none" points="481.768,1056.73 432.877,1021.66 409.842,1005.14 360.951,970.079 337.917,953.559 289.026,918.496 265.991,901.976 217.1,866.913 194.066,850.393 145.175,815.33 "/>
<polyline clip-path="url(#clip182)" style="stroke:#6e186e; stroke-linecap:round; stroke-linejoin:round; stroke-width:4; stroke-opacity:1; fill:none" points="145.175,770.56 184.566,798.81 217.1,822.143 256.491,850.393 289.026,873.726 328.417,901.976 360.951,925.309 400.342,953.559 432.877,976.892 472.268,1005.14 504.802,1028.48 544.193,1056.73 "/>
<polyline clip-path="url(#clip182)" style="stroke:#550f6d; stroke-linecap:round; stroke-linejoin:round; stroke-width:4; stroke-opacity:1; fill:none" points="620.285,1056.73 576.727,1025.49 548.36,1005.14 504.802,973.904 476.434,953.559 432.877,922.321 404.509,901.976 360.951,870.738 332.583,850.393 289.026,819.155 260.658,798.81 217.1,767.572 188.732,747.227 145.175,715.988 "/>
<polyline clip-path="url(#clip182)" style="stroke:#3b0964; stroke-linecap:round; stroke-linejoin:round; stroke-width:4; stroke-opacity:1; fill:none" points="145.175,646.648 213.492,695.644 217.1,698.231 285.417,747.227 289.026,749.815 357.343,798.81 360.951,801.398 429.268,850.393 432.877,852.981 501.194,901.976 504.802,904.564 573.119,953.559 576.727,956.147 645.045,1005.14 648.653,1007.73 716.97,1056.73 "/>
<polyline clip-path="url(#clip182)" style="stroke:#1f0c47; stroke-linecap:round; stroke-linejoin:round; stroke-width:4; stroke-opacity:1; fill:none" points="855.661,1056.73 792.504,1011.43 783.735,1005.14 720.578,959.848 711.81,953.559 648.653,908.265 639.884,901.976 576.727,856.682 567.959,850.393 504.802,805.099 496.033,798.81 432.877,753.516 424.108,747.227 360.951,701.932 352.182,695.644 289.026,650.349 280.257,644.061 217.1,598.766 208.332,592.478 145.175,547.183 "/>
<polyline clip-path="url(#clip182)" style="stroke:#090621; stroke-linecap:round; stroke-linejoin:round; stroke-width:4; stroke-opacity:1; fill:none" points="145.175,377.923 156.639,386.145 217.1,429.506 228.565,437.728 289.026,481.089 300.49,489.311 360.951,532.672 372.416,540.894 432.877,584.255 444.341,592.478 504.802,635.839 516.267,644.061 576.727,687.422 588.192,695.644 648.653,739.005 660.117,747.227 720.578,790.588 732.043,798.81 792.504,842.171 803.968,850.393 864.429,893.754 875.894,901.976 936.355,945.337 947.819,953.559 1008.28,996.92 1019.74,1005.14 1080.21,1048.5 1091.67,1056.73 "/>
<circle clip-path="url(#clip182)" cx="287.609" cy="946.097" r="14.4" fill="#e26f46" fill-rule="evenodd" fill-opacity="1" stroke="#000000" stroke-opacity="1" stroke-width="2.4"/>
<circle clip-path="url(#clip182)" cx="523.351" cy="850.642" r="14.4" fill="#e26f46" fill-rule="evenodd" fill-opacity="1" stroke="#000000" stroke-opacity="1" stroke-width="2.4"/>
<circle clip-path="url(#clip182)" cx="1508.13" cy="854.643" r="14.4" fill="#e26f46" fill-rule="evenodd" fill-opacity="1" stroke="#000000" stroke-opacity="1" stroke-width="2.4"/>
<circle clip-path="url(#clip182)" cx="409.542" cy="919.744" r="14.4" fill="#e26f46" fill-rule="evenodd" fill-opacity="1" stroke="#000000" stroke-opacity="1" stroke-width="2.4"/>
<circle clip-path="url(#clip182)" cx="309.417" cy="423.325" r="14.4" fill="#e26f46" fill-rule="evenodd" fill-opacity="1" stroke="#000000" stroke-opacity="1" stroke-width="2.4"/>
<circle clip-path="url(#clip182)" cx="736.343" cy="833.917" r="14.4" fill="#e26f46" fill-rule="evenodd" fill-opacity="1" stroke="#000000" stroke-opacity="1" stroke-width="2.4"/>
<circle clip-path="url(#clip182)" cx="743.716" cy="605.775" r="14.4" fill="#e26f46" fill-rule="evenodd" fill-opacity="1" stroke="#000000" stroke-opacity="1" stroke-width="2.4"/>
<circle clip-path="url(#clip182)" cx="539.33" cy="1017.44" r="14.4" fill="#e26f46" fill-rule="evenodd" fill-opacity="1" stroke="#000000" stroke-opacity="1" stroke-width="2.4"/>
<circle clip-path="url(#clip182)" cx="406.967" cy="1019.35" r="14.4" fill="#e26f46" fill-rule="evenodd" fill-opacity="1" stroke="#000000" stroke-opacity="1" stroke-width="2.4"/>
<circle clip-path="url(#clip182)" cx="383.933" cy="162.335" r="14.4" fill="#e26f46" fill-rule="evenodd" fill-opacity="1" stroke="#000000" stroke-opacity="1" stroke-width="2.4"/>
<circle clip-path="url(#clip182)" cx="417.202" cy="684.008" r="14.4" fill="#e26f46" fill-rule="evenodd" fill-opacity="1" stroke="#000000" stroke-opacity="1" stroke-width="2.4"/>
<circle clip-path="url(#clip182)" cx="210.766" cy="745.481" r="14.4" fill="#e26f46" fill-rule="evenodd" fill-opacity="1" stroke="#000000" stroke-opacity="1" stroke-width="2.4"/>
<circle clip-path="url(#clip182)" cx="175.15" cy="1031.11" r="14.4" fill="#e26f46" fill-rule="evenodd" fill-opacity="1" stroke="#000000" stroke-opacity="1" stroke-width="2.4"/>
<circle clip-path="url(#clip182)" cx="183.165" cy="874.096" r="14.4" fill="#e26f46" fill-rule="evenodd" fill-opacity="1" stroke="#000000" stroke-opacity="1" stroke-width="2.4"/>
<circle clip-path="url(#clip182)" cx="958.78" cy="959.991" r="14.4" fill="#e26f46" fill-rule="evenodd" fill-opacity="1" stroke="#000000" stroke-opacity="1" stroke-width="2.4"/>
<circle clip-path="url(#clip182)" cx="720.908" cy="1015.53" r="14.4" fill="#e26f46" fill-rule="evenodd" fill-opacity="1" stroke="#000000" stroke-opacity="1" stroke-width="2.4"/>
<circle clip-path="url(#clip182)" cx="184.976" cy="956.147" r="14.4" fill="#e26f46" fill-rule="evenodd" fill-opacity="1" stroke="#000000" stroke-opacity="1" stroke-width="2.4"/>
<circle clip-path="url(#clip182)" cx="213.464" cy="593.458" r="14.4" fill="#e26f46" fill-rule="evenodd" fill-opacity="1" stroke="#000000" stroke-opacity="1" stroke-width="2.4"/>
<circle clip-path="url(#clip182)" cx="294.506" cy="1025.61" r="14.4" fill="#e26f46" fill-rule="evenodd" fill-opacity="1" stroke="#000000" stroke-opacity="1" stroke-width="2.4"/>
<circle clip-path="url(#clip182)" cx="315.692" cy="822.559" r="14.4" fill="#e26f46" fill-rule="evenodd" fill-opacity="1" stroke="#000000" stroke-opacity="1" stroke-width="2.4"/>
</svg>
