<?xml version="1.0" encoding="utf-8"?>
<svg xmlns="http://www.w3.org/2000/svg" xmlns:xlink="http://www.w3.org/1999/xlink" width="600" height="400" viewBox="0 0 2400 1600">
<defs>
  <clipPath id="clip060">
    <rect x="0" y="0" width="2400" height="1600"/>
  </clipPath>
</defs>
<path clip-path="url(#clip060)" d="M0 1600 L2400 1600 L2400 0 L0 0  Z" fill="#ffffff" fill-rule="evenodd" fill-opacity="1"/>
<defs>
  <clipPath id="clip061">
    <rect x="480" y="0" width="1681" height="1600"/>
  </clipPath>
</defs>
<path clip-path="url(#clip060)" d="M112.177 1486.45 L2352.76 1486.45 L2352.76 47.2441 L112.177 47.2441  Z" fill="#ffffff" fill-rule="evenodd" fill-opacity="1"/>
<defs>
  <clipPath id="clip062">
    <rect x="112" y="47" width="2242" height="1440"/>
  </clipPath>
</defs>
<polyline clip-path="url(#clip062)" style="stroke:#000000; stroke-linecap:round; stroke-linejoin:round; stroke-width:2; stroke-opacity:0.1; fill:none" points="175.59,1486.45 175.59,47.2441 "/>
<polyline clip-path="url(#clip062)" style="stroke:#000000; stroke-linecap:round; stroke-linejoin:round; stroke-width:2; stroke-opacity:0.1; fill:none" points="704.028,1486.45 704.028,47.2441 "/>
<polyline clip-path="url(#clip062)" style="stroke:#000000; stroke-linecap:round; stroke-linejoin:round; stroke-width:2; stroke-opacity:0.1; fill:none" points="1232.47,1486.45 1232.47,47.2441 "/>
<polyline clip-path="url(#clip062)" style="stroke:#000000; stroke-linecap:round; stroke-linejoin:round; stroke-width:2; stroke-opacity:0.1; fill:none" points="1760.9,1486.45 1760.9,47.2441 "/>
<polyline clip-path="url(#clip062)" style="stroke:#000000; stroke-linecap:round; stroke-linejoin:round; stroke-width:2; stroke-opacity:0.1; fill:none" points="2289.34,1486.45 2289.34,47.2441 "/>
<polyline clip-path="url(#clip060)" style="stroke:#000000; stroke-linecap:round; stroke-linejoin:round; stroke-width:4; stroke-opacity:1; fill:none" points="112.177,1486.45 2352.76,1486.45 "/>
<polyline clip-path="url(#clip060)" style="stroke:#000000; stroke-linecap:round; stroke-linejoin:round; stroke-width:4; stroke-opacity:1; fill:none" points="175.59,1486.45 175.59,1467.55 "/>
<polyline clip-path="url(#clip060)" style="stroke:#000000; stroke-linecap:round; stroke-linejoin:round; stroke-width:4; stroke-opacity:1; fill:none" points="704.028,1486.45 704.028,1467.55 "/>
<polyline clip-path="url(#clip060)" style="stroke:#000000; stroke-linecap:round; stroke-linejoin:round; stroke-width:4; stroke-opacity:1; fill:none" points="1232.47,1486.45 1232.47,1467.55 "/>
<polyline clip-path="url(#clip060)" style="stroke:#000000; stroke-linecap:round; stroke-linejoin:round; stroke-width:4; stroke-opacity:1; fill:none" points="1760.9,1486.45 1760.9,1467.55 "/>
<polyline clip-path="url(#clip060)" style="stroke:#000000; stroke-linecap:round; stroke-linejoin:round; stroke-width:4; stroke-opacity:1; fill:none" points="2289.34,1486.45 2289.34,1467.55 "/>
<path clip-path="url(#clip060)" d="M175.59 1517.37 Q171.979 1517.37 170.15 1520.93 Q168.344 1524.47 168.344 1531.6 Q168.344 1538.71 170.15 1542.27 Q171.979 1545.82 175.59 1545.82 Q179.224 1545.82 181.03 1542.27 Q182.858 1538.71 182.858 1531.6 Q182.858 1524.47 181.03 1520.93 Q179.224 1517.37 175.59 1517.37 M175.59 1513.66 Q181.4 1513.66 184.455 1518.27 Q187.534 1522.85 187.534 1531.6 Q187.534 1540.33 184.455 1544.94 Q181.4 1549.52 175.59 1549.52 Q169.78 1549.52 166.701 1544.94 Q163.645 1540.33 163.645 1531.6 Q163.645 1522.85 166.701 1518.27 Q169.78 1513.66 175.59 1513.66 Z" fill="#000000" fill-rule="nonzero" fill-opacity="1" /><path clip-path="url(#clip060)" d="M694.41 1544.91 L702.049 1544.91 L702.049 1518.55 L693.739 1520.21 L693.739 1515.95 L702.003 1514.29 L706.679 1514.29 L706.679 1544.91 L714.317 1544.91 L714.317 1548.85 L694.41 1548.85 L694.41 1544.91 Z" fill="#000000" fill-rule="nonzero" fill-opacity="1" /><path clip-path="url(#clip060)" d="M1227.12 1544.91 L1243.44 1544.91 L1243.44 1548.85 L1221.49 1548.85 L1221.49 1544.91 Q1224.16 1542.16 1228.74 1537.53 Q1233.35 1532.88 1234.53 1531.53 Q1236.77 1529.01 1237.65 1527.27 Q1238.55 1525.51 1238.55 1523.82 Q1238.55 1521.07 1236.61 1519.33 Q1234.69 1517.6 1231.59 1517.6 Q1229.39 1517.6 1226.93 1518.36 Q1224.5 1519.13 1221.73 1520.68 L1221.73 1515.95 Q1224.55 1514.82 1227 1514.24 Q1229.46 1513.66 1231.49 1513.66 Q1236.86 1513.66 1240.06 1516.35 Q1243.25 1519.03 1243.25 1523.52 Q1243.25 1525.65 1242.44 1527.57 Q1241.66 1529.47 1239.55 1532.07 Q1238.97 1532.74 1235.87 1535.95 Q1232.77 1539.15 1227.12 1544.91 Z" fill="#000000" fill-rule="nonzero" fill-opacity="1" /><path clip-path="url(#clip060)" d="M1765.15 1530.21 Q1768.51 1530.93 1770.38 1533.2 Q1772.28 1535.47 1772.28 1538.8 Q1772.28 1543.92 1768.76 1546.72 Q1765.25 1549.52 1758.76 1549.52 Q1756.59 1549.52 1754.27 1549.08 Q1751.98 1548.66 1749.53 1547.81 L1749.53 1543.29 Q1751.47 1544.43 1753.79 1545.01 Q1756.1 1545.58 1758.62 1545.58 Q1763.02 1545.58 1765.31 1543.85 Q1767.63 1542.11 1767.63 1538.8 Q1767.63 1535.75 1765.48 1534.03 Q1763.35 1532.3 1759.53 1532.3 L1755.5 1532.3 L1755.5 1528.45 L1759.71 1528.45 Q1763.16 1528.45 1764.99 1527.09 Q1766.82 1525.7 1766.82 1523.11 Q1766.82 1520.45 1764.92 1519.03 Q1763.05 1517.6 1759.53 1517.6 Q1757.61 1517.6 1755.41 1518.01 Q1753.21 1518.43 1750.57 1519.31 L1750.57 1515.14 Q1753.23 1514.4 1755.55 1514.03 Q1757.88 1513.66 1759.94 1513.66 Q1765.27 1513.66 1768.37 1516.09 Q1771.47 1518.5 1771.47 1522.62 Q1771.47 1525.49 1769.83 1527.48 Q1768.18 1529.45 1765.15 1530.21 Z" fill="#000000" fill-rule="nonzero" fill-opacity="1" /><path clip-path="url(#clip060)" d="M2292.35 1518.36 L2280.55 1536.81 L2292.35 1536.81 L2292.35 1518.36 M2291.13 1514.29 L2297.01 1514.29 L2297.01 1536.81 L2301.94 1536.81 L2301.94 1540.7 L2297.01 1540.7 L2297.01 1548.85 L2292.35 1548.85 L2292.35 1540.7 L2276.75 1540.7 L2276.75 1536.19 L2291.13 1514.29 Z" fill="#000000" fill-rule="nonzero" fill-opacity="1" /><polyline clip-path="url(#clip062)" style="stroke:#000000; stroke-linecap:round; stroke-linejoin:round; stroke-width:2; stroke-opacity:0.1; fill:none" points="112.177,1445.72 2352.76,1445.72 "/>
<polyline clip-path="url(#clip062)" style="stroke:#000000; stroke-linecap:round; stroke-linejoin:round; stroke-width:2; stroke-opacity:0.1; fill:none" points="112.177,1106.28 2352.76,1106.28 "/>
<polyline clip-path="url(#clip062)" style="stroke:#000000; stroke-linecap:round; stroke-linejoin:round; stroke-width:2; stroke-opacity:0.1; fill:none" points="112.177,766.846 2352.76,766.846 "/>
<polyline clip-path="url(#clip062)" style="stroke:#000000; stroke-linecap:round; stroke-linejoin:round; stroke-width:2; stroke-opacity:0.1; fill:none" points="112.177,427.411 2352.76,427.411 "/>
<polyline clip-path="url(#clip062)" style="stroke:#000000; stroke-linecap:round; stroke-linejoin:round; stroke-width:2; stroke-opacity:0.1; fill:none" points="112.177,87.9763 2352.76,87.9763 "/>
<polyline clip-path="url(#clip060)" style="stroke:#000000; stroke-linecap:round; stroke-linejoin:round; stroke-width:4; stroke-opacity:1; fill:none" points="112.177,1486.45 112.177,47.2441 "/>
<polyline clip-path="url(#clip060)" style="stroke:#000000; stroke-linecap:round; stroke-linejoin:round; stroke-width:4; stroke-opacity:1; fill:none" points="112.177,1445.72 131.075,1445.72 "/>
<polyline clip-path="url(#clip060)" style="stroke:#000000; stroke-linecap:round; stroke-linejoin:round; stroke-width:4; stroke-opacity:1; fill:none" points="112.177,1106.28 131.075,1106.28 "/>
<polyline clip-path="url(#clip060)" style="stroke:#000000; stroke-linecap:round; stroke-linejoin:round; stroke-width:4; stroke-opacity:1; fill:none" points="112.177,766.846 131.075,766.846 "/>
<polyline clip-path="url(#clip060)" style="stroke:#000000; stroke-linecap:round; stroke-linejoin:round; stroke-width:4; stroke-opacity:1; fill:none" points="112.177,427.411 131.075,427.411 "/>
<polyline clip-path="url(#clip060)" style="stroke:#000000; stroke-linecap:round; stroke-linejoin:round; stroke-width:4; stroke-opacity:1; fill:none" points="112.177,87.9763 131.075,87.9763 "/>
<path clip-path="url(#clip060)" d="M64.2328 1431.51 Q60.6217 1431.51 58.793 1435.08 Q56.9875 1438.62 56.9875 1445.75 Q56.9875 1452.86 58.793 1456.42 Q60.6217 1459.96 64.2328 1459.96 Q67.867 1459.96 69.6726 1456.42 Q71.5013 1452.86 71.5013 1445.75 Q71.5013 1438.62 69.6726 1435.08 Q67.867 1431.51 64.2328 1431.51 M64.2328 1427.81 Q70.0429 1427.81 73.0985 1432.42 Q76.1772 1437 76.1772 1445.75 Q76.1772 1454.48 73.0985 1459.08 Q70.0429 1463.67 64.2328 1463.67 Q58.4226 1463.67 55.344 1459.08 Q52.2884 1454.48 52.2884 1445.75 Q52.2884 1437 55.344 1432.42 Q58.4226 1427.81 64.2328 1427.81 Z" fill="#000000" fill-rule="nonzero" fill-opacity="1" /><path clip-path="url(#clip060)" d="M56.2699 1119.63 L63.9087 1119.63 L63.9087 1093.26 L55.5986 1094.93 L55.5986 1090.67 L63.8624 1089 L68.5383 1089 L68.5383 1119.63 L76.1772 1119.63 L76.1772 1123.56 L56.2699 1123.56 L56.2699 1119.63 Z" fill="#000000" fill-rule="nonzero" fill-opacity="1" /><path clip-path="url(#clip060)" d="M59.8578 780.191 L76.1772 780.191 L76.1772 784.126 L54.2328 784.126 L54.2328 780.191 Q56.8949 777.436 61.4782 772.807 Q66.0846 768.154 67.2652 766.811 Q69.5105 764.288 70.3902 762.552 Q71.2929 760.793 71.2929 759.103 Q71.2929 756.348 69.3485 754.612 Q67.4272 752.876 64.3254 752.876 Q62.1263 752.876 59.6726 753.64 Q57.2421 754.404 54.4643 755.955 L54.4643 751.233 Q57.2884 750.098 59.7421 749.52 Q62.1958 748.941 64.2328 748.941 Q69.6031 748.941 72.7976 751.626 Q75.992 754.311 75.992 758.802 Q75.992 760.932 75.1818 762.853 Q74.3948 764.751 72.2883 767.344 Q71.7096 768.015 68.6078 771.233 Q65.5059 774.427 59.8578 780.191 Z" fill="#000000" fill-rule="nonzero" fill-opacity="1" /><path clip-path="url(#clip060)" d="M69.0476 426.057 Q72.404 426.775 74.279 429.043 Q76.1772 431.312 76.1772 434.645 Q76.1772 439.761 72.6587 442.562 Q69.1402 445.362 62.6587 445.362 Q60.4828 445.362 58.168 444.923 Q55.8764 444.506 53.4227 443.649 L53.4227 439.136 Q55.3671 440.27 57.6819 440.849 Q59.9967 441.427 62.5198 441.427 Q66.918 441.427 69.2096 439.691 Q71.5244 437.955 71.5244 434.645 Q71.5244 431.589 69.3717 429.876 Q67.242 428.14 63.4226 428.14 L59.3949 428.14 L59.3949 424.298 L63.6078 424.298 Q67.0569 424.298 68.8855 422.932 Q70.7142 421.543 70.7142 418.951 Q70.7142 416.289 68.8161 414.876 Q66.9411 413.441 63.4226 413.441 Q61.5013 413.441 59.3023 413.858 Q57.1032 414.275 54.4643 415.154 L54.4643 410.988 Q57.1264 410.247 59.4412 409.877 Q61.7791 409.506 63.8393 409.506 Q69.1633 409.506 72.2652 411.937 Q75.367 414.344 75.367 418.464 Q75.367 421.335 73.7235 423.326 Q72.08 425.293 69.0476 426.057 Z" fill="#000000" fill-rule="nonzero" fill-opacity="1" /><path clip-path="url(#clip060)" d="M66.5939 74.7703 L54.7884 93.2193 L66.5939 93.2193 L66.5939 74.7703 M65.367 70.6963 L71.2466 70.6963 L71.2466 93.2193 L76.1772 93.2193 L76.1772 97.1082 L71.2466 97.1082 L71.2466 105.256 L66.5939 105.256 L66.5939 97.1082 L50.9921 97.1082 L50.9921 92.5943 L65.367 70.6963 Z" fill="#000000" fill-rule="nonzero" fill-opacity="1" /><polyline clip-path="url(#clip062)" style="stroke:#fbaa0e; stroke-linecap:round; stroke-linejoin:round; stroke-width:4; stroke-opacity:1; fill:none" points="285.431,1445.72 175.59,1375.16 "/>
<polyline clip-path="url(#clip062)" style="stroke:#f8c931; stroke-linecap:round; stroke-linejoin:round; stroke-width:4; stroke-opacity:1; fill:none" points="248.817,1445.72 175.59,1398.68 "/>
<polyline clip-path="url(#clip062)" style="stroke:#f1e864; stroke-linecap:round; stroke-linejoin:round; stroke-width:4; stroke-opacity:1; fill:none" points="212.203,1445.72 175.59,1422.2 "/>
<polyline clip-path="url(#clip062)" style="stroke:#f0701e; stroke-linecap:round; stroke-linejoin:round; stroke-width:4; stroke-opacity:1; fill:none" points="375.487,1445.72 286.84,1388.77 264.236,1374.26 175.59,1317.31 "/>
<polyline clip-path="url(#clip062)" style="stroke:#f98c09; stroke-linecap:round; stroke-linejoin:round; stroke-width:4; stroke-opacity:1; fill:none" points="175.59,1346.34 219.043,1374.26 286.84,1417.8 330.293,1445.72 "/>
<polyline clip-path="url(#clip062)" style="stroke:#d04544; stroke-linecap:round; stroke-linejoin:round; stroke-width:4; stroke-opacity:1; fill:none" points="481.756,1445.72 398.09,1391.97 370.506,1374.26 286.84,1320.51 259.256,1302.8 175.59,1249.05 "/>
<polyline clip-path="url(#clip062)" style="stroke:#e35832; stroke-linecap:round; stroke-linejoin:round; stroke-width:4; stroke-opacity:1; fill:none" points="175.59,1284.89 203.473,1302.8 286.84,1356.35 314.723,1374.26 398.09,1427.81 425.973,1445.72 "/>
<polyline clip-path="url(#clip062)" style="stroke:#a12b61; stroke-linecap:round; stroke-linejoin:round; stroke-width:4; stroke-opacity:1; fill:none" points="613.002,1445.72 509.34,1379.13 501.752,1374.26 398.09,1307.67 390.501,1302.8 286.84,1236.21 279.251,1231.34 175.59,1164.75 "/>
<polyline clip-path="url(#clip062)" style="stroke:#ba3655; stroke-linecap:round; stroke-linejoin:round; stroke-width:4; stroke-opacity:1; fill:none" points="175.59,1208.98 210.397,1231.34 286.84,1280.44 321.647,1302.8 398.09,1351.9 432.897,1374.26 509.34,1423.36 544.147,1445.72 "/>
<polyline clip-path="url(#clip062)" style="stroke:#88216a; stroke-linecap:round; stroke-linejoin:round; stroke-width:4; stroke-opacity:1; fill:none" points="696.213,1445.72 620.591,1397.14 584.963,1374.26 509.34,1325.68 473.712,1302.8 398.09,1254.22 362.462,1231.34 286.84,1182.76 251.212,1159.88 175.59,1111.3 "/>
<polyline clip-path="url(#clip062)" style="stroke:#6e186e; stroke-linecap:round; stroke-linejoin:round; stroke-width:4; stroke-opacity:1; fill:none" points="175.59,1049.28 236.518,1088.42 286.84,1120.74 347.768,1159.88 398.09,1192.2 459.018,1231.34 509.34,1263.66 570.268,1302.8 620.591,1335.12 681.518,1374.26 731.841,1406.58 792.769,1445.72 "/>
<polyline clip-path="url(#clip062)" style="stroke:#550f6d; stroke-linecap:round; stroke-linejoin:round; stroke-width:4; stroke-opacity:1; fill:none" points="910.463,1445.72 843.091,1402.44 799.213,1374.26 731.841,1330.98 687.963,1302.8 620.591,1259.52 576.713,1231.34 509.34,1188.06 465.463,1159.88 398.09,1116.6 354.212,1088.42 286.84,1045.14 242.962,1016.96 175.59,973.68 "/>
<polyline clip-path="url(#clip062)" style="stroke:#3b0964; stroke-linecap:round; stroke-linejoin:round; stroke-width:4; stroke-opacity:1; fill:none" points="175.59,877.621 281.259,945.496 286.84,949.081 392.509,1016.96 398.09,1020.54 503.759,1088.42 509.34,1092 615.01,1159.88 620.591,1163.46 726.26,1231.34 731.841,1234.92 837.51,1302.8 843.091,1306.38 948.76,1374.26 954.341,1377.84 1060.01,1445.72 "/>
<polyline clip-path="url(#clip062)" style="stroke:#1f0c47; stroke-linecap:round; stroke-linejoin:round; stroke-width:4; stroke-opacity:1; fill:none" points="1274.53,1445.72 1176.84,1382.97 1163.28,1374.26 1065.59,1311.51 1052.03,1302.8 954.341,1240.05 940.778,1231.34 843.091,1168.59 829.528,1159.88 731.841,1097.13 718.278,1088.42 620.591,1025.67 607.028,1016.96 509.34,954.208 495.778,945.496 398.09,882.748 384.527,874.036 286.84,811.288 273.277,802.576 175.59,739.828 "/>
<polyline clip-path="url(#clip062)" style="stroke:#090621; stroke-linecap:round; stroke-linejoin:round; stroke-width:4; stroke-opacity:1; fill:none" points="175.59,505.346 193.323,516.736 286.84,576.806 304.573,588.196 398.09,648.266 415.823,659.656 509.34,719.726 527.073,731.116 620.591,791.186 638.323,802.576 731.841,862.646 749.573,874.036 843.091,934.106 860.824,945.496 954.341,1005.57 972.074,1016.96 1065.59,1077.03 1083.32,1088.42 1176.84,1148.49 1194.57,1159.88 1288.09,1219.95 1305.82,1231.34 1399.34,1291.41 1417.07,1302.8 1510.59,1362.87 1528.32,1374.26 1621.84,1434.33 1639.57,1445.72 "/>
<circle clip-path="url(#clip062)" cx="395.899" cy="1292.46" r="14.4" fill="#e26f46" fill-rule="evenodd" fill-opacity="1" stroke="#000000" stroke-opacity="1" stroke-width="3.2"/>
<circle clip-path="url(#clip062)" cx="760.531" cy="1160.22" r="14.4" fill="#e26f46" fill-rule="evenodd" fill-opacity="1" stroke="#000000" stroke-opacity="1" stroke-width="3.2"/>
<circle clip-path="url(#clip062)" cx="2283.73" cy="1165.76" r="14.4" fill="#e26f46" fill-rule="evenodd" fill-opacity="1" stroke="#000000" stroke-opacity="1" stroke-width="3.2"/>
<circle clip-path="url(#clip062)" cx="584.498" cy="1255.95" r="14.4" fill="#e26f46" fill-rule="evenodd" fill-opacity="1" stroke="#000000" stroke-opacity="1" stroke-width="3.2"/>
<circle clip-path="url(#clip062)" cx="429.631" cy="568.243" r="14.4" fill="#e26f46" fill-rule="evenodd" fill-opacity="1" stroke="#000000" stroke-opacity="1" stroke-width="3.2"/>
<circle clip-path="url(#clip062)" cx="1089.97" cy="1137.05" r="14.4" fill="#e26f46" fill-rule="evenodd" fill-opacity="1" stroke="#000000" stroke-opacity="1" stroke-width="3.2"/>
<circle clip-path="url(#clip062)" cx="1101.38" cy="820.997" r="14.4" fill="#e26f46" fill-rule="evenodd" fill-opacity="1" stroke="#000000" stroke-opacity="1" stroke-width="3.2"/>
<circle clip-path="url(#clip062)" cx="785.246" cy="1391.3" r="14.4" fill="#e26f46" fill-rule="evenodd" fill-opacity="1" stroke="#000000" stroke-opacity="1" stroke-width="3.2"/>
<circle clip-path="url(#clip062)" cx="580.516" cy="1393.94" r="14.4" fill="#e26f46" fill-rule="evenodd" fill-opacity="1" stroke="#000000" stroke-opacity="1" stroke-width="3.2"/>
<circle clip-path="url(#clip062)" cx="544.887" cy="206.684" r="14.4" fill="#e26f46" fill-rule="evenodd" fill-opacity="1" stroke="#000000" stroke-opacity="1" stroke-width="3.2"/>
<circle clip-path="url(#clip062)" cx="596.347" cy="929.377" r="14.4" fill="#e26f46" fill-rule="evenodd" fill-opacity="1" stroke="#000000" stroke-opacity="1" stroke-width="3.2"/>
<circle clip-path="url(#clip062)" cx="277.042" cy="1014.54" r="14.4" fill="#e26f46" fill-rule="evenodd" fill-opacity="1" stroke="#000000" stroke-opacity="1" stroke-width="3.2"/>
<circle clip-path="url(#clip062)" cx="221.954" cy="1410.22" r="14.4" fill="#e26f46" fill-rule="evenodd" fill-opacity="1" stroke="#000000" stroke-opacity="1" stroke-width="3.2"/>
<circle clip-path="url(#clip062)" cx="234.351" cy="1192.71" r="14.4" fill="#e26f46" fill-rule="evenodd" fill-opacity="1" stroke="#000000" stroke-opacity="1" stroke-width="3.2"/>
<circle clip-path="url(#clip062)" cx="1434.03" cy="1311.71" r="14.4" fill="#e26f46" fill-rule="evenodd" fill-opacity="1" stroke="#000000" stroke-opacity="1" stroke-width="3.2"/>
<circle clip-path="url(#clip062)" cx="1066.1" cy="1388.65" r="14.4" fill="#e26f46" fill-rule="evenodd" fill-opacity="1" stroke="#000000" stroke-opacity="1" stroke-width="3.2"/>
<circle clip-path="url(#clip062)" cx="237.152" cy="1306.38" r="14.4" fill="#e26f46" fill-rule="evenodd" fill-opacity="1" stroke="#000000" stroke-opacity="1" stroke-width="3.2"/>
<circle clip-path="url(#clip062)" cx="281.217" cy="803.934" r="14.4" fill="#e26f46" fill-rule="evenodd" fill-opacity="1" stroke="#000000" stroke-opacity="1" stroke-width="3.2"/>
<circle clip-path="url(#clip062)" cx="406.566" cy="1402.61" r="14.4" fill="#e26f46" fill-rule="evenodd" fill-opacity="1" stroke="#000000" stroke-opacity="1" stroke-width="3.2"/>
<circle clip-path="url(#clip062)" cx="439.336" cy="1121.32" r="14.4" fill="#e26f46" fill-rule="evenodd" fill-opacity="1" stroke="#000000" stroke-opacity="1" stroke-width="3.2"/>
</svg>
