<?xml version="1.0" encoding="utf-8"?>
<svg xmlns="http://www.w3.org/2000/svg" xmlns:xlink="http://www.w3.org/1999/xlink" width="400" height="300" viewBox="0 0 1600 1200">
<defs>
  <clipPath id="clip150">
    <rect x="0" y="0" width="1600" height="1200"/>
  </clipPath>
</defs>
<path clip-path="url(#clip150)" d="M0 1200 L1600 1200 L1600 0 L0 0  Z" fill="#ffffff" fill-rule="evenodd" fill-opacity="1"/>
<defs>
  <clipPath id="clip151">
    <rect x="320" y="0" width="1121" height="1121"/>
  </clipPath>
</defs>
<path clip-path="url(#clip150)" d="M178.274 1086.13 L1552.76 1086.13 L1552.76 47.2441 L178.274 47.2441  Z" fill="#ffffff" fill-rule="evenodd" fill-opacity="1"/>
<defs>
  <clipPath id="clip152">
    <rect x="178" y="47" width="1375" height="1040"/>
  </clipPath>
</defs>
<polyline clip-path="url(#clip152)" style="stroke:#000000; stroke-linecap:round; stroke-linejoin:round; stroke-width:2; stroke-opacity:0.1; fill:none" points="217.174,1086.13 217.174,47.2441 "/>
<polyline clip-path="url(#clip152)" style="stroke:#000000; stroke-linecap:round; stroke-linejoin:round; stroke-width:2; stroke-opacity:0.1; fill:none" points="541.345,1086.13 541.345,47.2441 "/>
<polyline clip-path="url(#clip152)" style="stroke:#000000; stroke-linecap:round; stroke-linejoin:round; stroke-width:2; stroke-opacity:0.1; fill:none" points="865.515,1086.13 865.515,47.2441 "/>
<polyline clip-path="url(#clip152)" style="stroke:#000000; stroke-linecap:round; stroke-linejoin:round; stroke-width:2; stroke-opacity:0.1; fill:none" points="1189.69,1086.13 1189.69,47.2441 "/>
<polyline clip-path="url(#clip152)" style="stroke:#000000; stroke-linecap:round; stroke-linejoin:round; stroke-width:2; stroke-opacity:0.1; fill:none" points="1513.86,1086.13 1513.86,47.2441 "/>
<polyline clip-path="url(#clip150)" style="stroke:#000000; stroke-linecap:round; stroke-linejoin:round; stroke-width:4; stroke-opacity:1; fill:none" points="178.274,1086.13 1552.76,1086.13 "/>
<polyline clip-path="url(#clip150)" style="stroke:#000000; stroke-linecap:round; stroke-linejoin:round; stroke-width:4; stroke-opacity:1; fill:none" points="217.174,1086.13 217.174,1067.23 "/>
<polyline clip-path="url(#clip150)" style="stroke:#000000; stroke-linecap:round; stroke-linejoin:round; stroke-width:4; stroke-opacity:1; fill:none" points="541.345,1086.13 541.345,1067.23 "/>
<polyline clip-path="url(#clip150)" style="stroke:#000000; stroke-linecap:round; stroke-linejoin:round; stroke-width:4; stroke-opacity:1; fill:none" points="865.515,1086.13 865.515,1067.23 "/>
<polyline clip-path="url(#clip150)" style="stroke:#000000; stroke-linecap:round; stroke-linejoin:round; stroke-width:4; stroke-opacity:1; fill:none" points="1189.69,1086.13 1189.69,1067.23 "/>
<polyline clip-path="url(#clip150)" style="stroke:#000000; stroke-linecap:round; stroke-linejoin:round; stroke-width:4; stroke-opacity:1; fill:none" points="1513.86,1086.13 1513.86,1067.23 "/>
<path clip-path="url(#clip150)" d="M179.478 1110.65 Q175.867 1110.65 174.038 1114.21 Q172.233 1117.75 172.233 1124.88 Q172.233 1131.99 174.038 1135.55 Q175.867 1139.1 179.478 1139.1 Q183.112 1139.1 184.918 1135.55 Q186.746 1131.99 186.746 1124.88 Q186.746 1117.75 184.918 1114.21 Q183.112 1110.65 179.478 1110.65 M179.478 1106.94 Q185.288 1106.94 188.344 1111.55 Q191.422 1116.13 191.422 1124.88 Q191.422 1133.61 188.344 1138.22 Q185.288 1142.8 179.478 1142.8 Q173.668 1142.8 170.589 1138.22 Q167.533 1133.61 167.533 1124.88 Q167.533 1116.13 170.589 1111.55 Q173.668 1106.94 179.478 1106.94 Z" fill="#000000" fill-rule="nonzero" fill-opacity="1" /><path clip-path="url(#clip150)" d="M199.64 1136.25 L204.524 1136.25 L204.524 1142.13 L199.64 1142.13 L199.64 1136.25 Z" fill="#000000" fill-rule="nonzero" fill-opacity="1" /><path clip-path="url(#clip150)" d="M224.709 1110.65 Q221.098 1110.65 219.269 1114.21 Q217.464 1117.75 217.464 1124.88 Q217.464 1131.99 219.269 1135.55 Q221.098 1139.1 224.709 1139.1 Q228.343 1139.1 230.149 1135.55 Q231.978 1131.99 231.978 1124.88 Q231.978 1117.75 230.149 1114.21 Q228.343 1110.65 224.709 1110.65 M224.709 1106.94 Q230.519 1106.94 233.575 1111.55 Q236.653 1116.13 236.653 1124.88 Q236.653 1133.61 233.575 1138.22 Q230.519 1142.8 224.709 1142.8 Q218.899 1142.8 215.82 1138.22 Q212.765 1133.61 212.765 1124.88 Q212.765 1116.13 215.82 1111.55 Q218.899 1106.94 224.709 1106.94 Z" fill="#000000" fill-rule="nonzero" fill-opacity="1" /><path clip-path="url(#clip150)" d="M254.871 1110.65 Q251.26 1110.65 249.431 1114.21 Q247.626 1117.75 247.626 1124.88 Q247.626 1131.99 249.431 1135.55 Q251.26 1139.1 254.871 1139.1 Q258.505 1139.1 260.311 1135.55 Q262.139 1131.99 262.139 1124.88 Q262.139 1117.75 260.311 1114.21 Q258.505 1110.65 254.871 1110.65 M254.871 1106.94 Q260.681 1106.94 263.737 1111.55 Q266.815 1116.13 266.815 1124.88 Q266.815 1133.61 263.737 1138.22 Q260.681 1142.8 254.871 1142.8 Q249.061 1142.8 245.982 1138.22 Q242.927 1133.61 242.927 1124.88 Q242.927 1116.13 245.982 1111.55 Q249.061 1106.94 254.871 1106.94 Z" fill="#000000" fill-rule="nonzero" fill-opacity="1" /><path clip-path="url(#clip150)" d="M504.146 1110.65 Q500.535 1110.65 498.706 1114.21 Q496.9 1117.75 496.9 1124.88 Q496.9 1131.99 498.706 1135.55 Q500.535 1139.1 504.146 1139.1 Q507.78 1139.1 509.586 1135.55 Q511.414 1131.99 511.414 1124.88 Q511.414 1117.75 509.586 1114.21 Q507.78 1110.65 504.146 1110.65 M504.146 1106.94 Q509.956 1106.94 513.012 1111.55 Q516.09 1116.13 516.09 1124.88 Q516.09 1133.61 513.012 1138.22 Q509.956 1142.8 504.146 1142.8 Q498.336 1142.8 495.257 1138.22 Q492.201 1133.61 492.201 1124.88 Q492.201 1116.13 495.257 1111.55 Q498.336 1106.94 504.146 1106.94 Z" fill="#000000" fill-rule="nonzero" fill-opacity="1" /><path clip-path="url(#clip150)" d="M524.308 1136.25 L529.192 1136.25 L529.192 1142.13 L524.308 1142.13 L524.308 1136.25 Z" fill="#000000" fill-rule="nonzero" fill-opacity="1" /><path clip-path="url(#clip150)" d="M543.405 1138.19 L559.724 1138.19 L559.724 1142.13 L537.78 1142.13 L537.78 1138.19 Q540.442 1135.44 545.025 1130.81 Q549.632 1126.16 550.812 1124.81 Q553.058 1122.29 553.937 1120.55 Q554.84 1118.79 554.84 1117.1 Q554.84 1114.35 552.896 1112.61 Q550.974 1110.88 547.872 1110.88 Q545.673 1110.88 543.22 1111.64 Q540.789 1112.41 538.011 1113.96 L538.011 1109.23 Q540.835 1108.1 543.289 1107.52 Q545.743 1106.94 547.78 1106.94 Q553.15 1106.94 556.345 1109.63 Q559.539 1112.31 559.539 1116.8 Q559.539 1118.93 558.729 1120.85 Q557.942 1122.75 555.835 1125.35 Q555.257 1126.02 552.155 1129.23 Q549.053 1132.43 543.405 1138.19 Z" fill="#000000" fill-rule="nonzero" fill-opacity="1" /><path clip-path="url(#clip150)" d="M569.585 1107.57 L587.942 1107.57 L587.942 1111.5 L573.868 1111.5 L573.868 1119.98 Q574.886 1119.63 575.905 1119.47 Q576.923 1119.28 577.942 1119.28 Q583.729 1119.28 587.108 1122.45 Q590.488 1125.62 590.488 1131.04 Q590.488 1136.62 587.016 1139.72 Q583.544 1142.8 577.224 1142.8 Q575.048 1142.8 572.78 1142.43 Q570.534 1142.06 568.127 1141.32 L568.127 1136.62 Q570.21 1137.75 572.432 1138.31 Q574.655 1138.86 577.132 1138.86 Q581.136 1138.86 583.474 1136.76 Q585.812 1134.65 585.812 1131.04 Q585.812 1127.43 583.474 1125.32 Q581.136 1123.22 577.132 1123.22 Q575.257 1123.22 573.382 1123.63 Q571.53 1124.05 569.585 1124.93 L569.585 1107.57 Z" fill="#000000" fill-rule="nonzero" fill-opacity="1" /><path clip-path="url(#clip150)" d="M827.818 1110.65 Q824.207 1110.65 822.379 1114.21 Q820.573 1117.75 820.573 1124.88 Q820.573 1131.99 822.379 1135.55 Q824.207 1139.1 827.818 1139.1 Q831.453 1139.1 833.258 1135.55 Q835.087 1131.99 835.087 1124.88 Q835.087 1117.75 833.258 1114.21 Q831.453 1110.65 827.818 1110.65 M827.818 1106.94 Q833.629 1106.94 836.684 1111.55 Q839.763 1116.13 839.763 1124.88 Q839.763 1133.61 836.684 1138.22 Q833.629 1142.8 827.818 1142.8 Q822.008 1142.8 818.93 1138.22 Q815.874 1133.61 815.874 1124.88 Q815.874 1116.13 818.93 1111.55 Q822.008 1106.94 827.818 1106.94 Z" fill="#000000" fill-rule="nonzero" fill-opacity="1" /><path clip-path="url(#clip150)" d="M847.98 1136.25 L852.865 1136.25 L852.865 1142.13 L847.98 1142.13 L847.98 1136.25 Z" fill="#000000" fill-rule="nonzero" fill-opacity="1" /><path clip-path="url(#clip150)" d="M863.096 1107.57 L881.452 1107.57 L881.452 1111.5 L867.378 1111.5 L867.378 1119.98 Q868.397 1119.63 869.415 1119.47 Q870.434 1119.28 871.452 1119.28 Q877.239 1119.28 880.619 1122.45 Q883.999 1125.62 883.999 1131.04 Q883.999 1136.62 880.526 1139.72 Q877.054 1142.8 870.735 1142.8 Q868.559 1142.8 866.29 1142.43 Q864.045 1142.06 861.638 1141.32 L861.638 1136.62 Q863.721 1137.75 865.943 1138.31 Q868.165 1138.86 870.642 1138.86 Q874.647 1138.86 876.985 1136.76 Q879.323 1134.65 879.323 1131.04 Q879.323 1127.43 876.985 1125.32 Q874.647 1123.22 870.642 1123.22 Q868.767 1123.22 866.892 1123.63 Q865.04 1124.05 863.096 1124.93 L863.096 1107.57 Z" fill="#000000" fill-rule="nonzero" fill-opacity="1" /><path clip-path="url(#clip150)" d="M903.212 1110.65 Q899.6 1110.65 897.772 1114.21 Q895.966 1117.75 895.966 1124.88 Q895.966 1131.99 897.772 1135.55 Q899.6 1139.1 903.212 1139.1 Q906.846 1139.1 908.651 1135.55 Q910.48 1131.99 910.48 1124.88 Q910.48 1117.75 908.651 1114.21 Q906.846 1110.65 903.212 1110.65 M903.212 1106.94 Q909.022 1106.94 912.077 1111.55 Q915.156 1116.13 915.156 1124.88 Q915.156 1133.61 912.077 1138.22 Q909.022 1142.8 903.212 1142.8 Q897.401 1142.8 894.323 1138.22 Q891.267 1133.61 891.267 1124.88 Q891.267 1116.13 894.323 1111.55 Q897.401 1106.94 903.212 1106.94 Z" fill="#000000" fill-rule="nonzero" fill-opacity="1" /><path clip-path="url(#clip150)" d="M1152.49 1110.65 Q1148.88 1110.65 1147.05 1114.21 Q1145.24 1117.75 1145.24 1124.88 Q1145.24 1131.99 1147.05 1135.55 Q1148.88 1139.1 1152.49 1139.1 Q1156.12 1139.1 1157.93 1135.55 Q1159.75 1131.99 1159.75 1124.88 Q1159.75 1117.75 1157.93 1114.21 Q1156.12 1110.65 1152.49 1110.65 M1152.49 1106.94 Q1158.3 1106.94 1161.35 1111.55 Q1164.43 1116.13 1164.43 1124.88 Q1164.43 1133.61 1161.35 1138.22 Q1158.3 1142.8 1152.49 1142.8 Q1146.68 1142.8 1143.6 1138.22 Q1140.54 1133.61 1140.54 1124.88 Q1140.54 1116.13 1143.6 1111.55 Q1146.68 1106.94 1152.49 1106.94 Z" fill="#000000" fill-rule="nonzero" fill-opacity="1" /><path clip-path="url(#clip150)" d="M1172.65 1136.25 L1177.53 1136.25 L1177.53 1142.13 L1172.65 1142.13 L1172.65 1136.25 Z" fill="#000000" fill-rule="nonzero" fill-opacity="1" /><path clip-path="url(#clip150)" d="M1186.54 1107.57 L1208.76 1107.57 L1208.76 1109.56 L1196.21 1142.13 L1191.33 1142.13 L1203.13 1111.5 L1186.54 1111.5 L1186.54 1107.57 Z" fill="#000000" fill-rule="nonzero" fill-opacity="1" /><path clip-path="url(#clip150)" d="M1217.93 1107.57 L1236.28 1107.57 L1236.28 1111.5 L1222.21 1111.5 L1222.21 1119.98 Q1223.23 1119.63 1224.25 1119.47 Q1225.26 1119.28 1226.28 1119.28 Q1232.07 1119.28 1235.45 1122.45 Q1238.83 1125.62 1238.83 1131.04 Q1238.83 1136.62 1235.36 1139.72 Q1231.88 1142.8 1225.56 1142.8 Q1223.39 1142.8 1221.12 1142.43 Q1218.87 1142.06 1216.47 1141.32 L1216.47 1136.62 Q1218.55 1137.75 1220.77 1138.31 Q1223 1138.86 1225.47 1138.86 Q1229.48 1138.86 1231.81 1136.76 Q1234.15 1134.65 1234.15 1131.04 Q1234.15 1127.43 1231.81 1125.32 Q1229.48 1123.22 1225.47 1123.22 Q1223.6 1123.22 1221.72 1123.63 Q1219.87 1124.05 1217.93 1124.93 L1217.93 1107.57 Z" fill="#000000" fill-rule="nonzero" fill-opacity="1" /><path clip-path="url(#clip150)" d="M1465.93 1138.19 L1473.57 1138.19 L1473.57 1111.83 L1465.26 1113.49 L1465.26 1109.23 L1473.52 1107.57 L1478.2 1107.57 L1478.2 1138.19 L1485.83 1138.19 L1485.83 1142.13 L1465.93 1142.13 L1465.93 1138.19 Z" fill="#000000" fill-rule="nonzero" fill-opacity="1" /><path clip-path="url(#clip150)" d="M1495.28 1136.25 L1500.16 1136.25 L1500.16 1142.13 L1495.28 1142.13 L1495.28 1136.25 Z" fill="#000000" fill-rule="nonzero" fill-opacity="1" /><path clip-path="url(#clip150)" d="M1520.35 1110.65 Q1516.74 1110.65 1514.91 1114.21 Q1513.1 1117.75 1513.1 1124.88 Q1513.1 1131.99 1514.91 1135.55 Q1516.74 1139.1 1520.35 1139.1 Q1523.98 1139.1 1525.79 1135.55 Q1527.62 1131.99 1527.62 1124.88 Q1527.62 1117.75 1525.79 1114.21 Q1523.98 1110.65 1520.35 1110.65 M1520.35 1106.94 Q1526.16 1106.94 1529.21 1111.55 Q1532.29 1116.13 1532.29 1124.88 Q1532.29 1133.61 1529.21 1138.22 Q1526.16 1142.8 1520.35 1142.8 Q1514.54 1142.8 1511.46 1138.22 Q1508.4 1133.61 1508.4 1124.88 Q1508.4 1116.13 1511.46 1111.55 Q1514.54 1106.94 1520.35 1106.94 Z" fill="#000000" fill-rule="nonzero" fill-opacity="1" /><path clip-path="url(#clip150)" d="M1550.51 1110.65 Q1546.9 1110.65 1545.07 1114.21 Q1543.27 1117.75 1543.27 1124.88 Q1543.27 1131.99 1545.07 1135.55 Q1546.9 1139.1 1550.51 1139.1 Q1554.14 1139.1 1555.95 1135.55 Q1557.78 1131.99 1557.78 1124.88 Q1557.78 1117.75 1555.95 1114.21 Q1554.14 1110.65 1550.51 1110.65 M1550.51 1106.94 Q1556.32 1106.94 1559.38 1111.55 Q1562.45 1116.13 1562.45 1124.88 Q1562.45 1133.61 1559.38 1138.22 Q1556.32 1142.8 1550.51 1142.8 Q1544.7 1142.8 1541.62 1138.22 Q1538.57 1133.61 1538.57 1124.88 Q1538.57 1116.13 1541.62 1111.55 Q1544.7 1106.94 1550.51 1106.94 Z" fill="#000000" fill-rule="nonzero" fill-opacity="1" /><polyline clip-path="url(#clip152)" style="stroke:#000000; stroke-linecap:round; stroke-linejoin:round; stroke-width:2; stroke-opacity:0.1; fill:none" points="178.274,1056.73 1552.76,1056.73 "/>
<polyline clip-path="url(#clip152)" style="stroke:#000000; stroke-linecap:round; stroke-linejoin:round; stroke-width:2; stroke-opacity:0.1; fill:none" points="178.274,811.706 1552.76,811.706 "/>
<polyline clip-path="url(#clip152)" style="stroke:#000000; stroke-linecap:round; stroke-linejoin:round; stroke-width:2; stroke-opacity:0.1; fill:none" points="178.274,566.686 1552.76,566.686 "/>
<polyline clip-path="url(#clip152)" style="stroke:#000000; stroke-linecap:round; stroke-linejoin:round; stroke-width:2; stroke-opacity:0.1; fill:none" points="178.274,321.666 1552.76,321.666 "/>
<polyline clip-path="url(#clip152)" style="stroke:#000000; stroke-linecap:round; stroke-linejoin:round; stroke-width:2; stroke-opacity:0.1; fill:none" points="178.274,76.6465 1552.76,76.6465 "/>
<polyline clip-path="url(#clip150)" style="stroke:#000000; stroke-linecap:round; stroke-linejoin:round; stroke-width:4; stroke-opacity:1; fill:none" points="178.274,1086.13 178.274,47.2441 "/>
<polyline clip-path="url(#clip150)" style="stroke:#000000; stroke-linecap:round; stroke-linejoin:round; stroke-width:4; stroke-opacity:1; fill:none" points="178.274,1056.73 197.172,1056.73 "/>
<polyline clip-path="url(#clip150)" style="stroke:#000000; stroke-linecap:round; stroke-linejoin:round; stroke-width:4; stroke-opacity:1; fill:none" points="178.274,811.706 197.172,811.706 "/>
<polyline clip-path="url(#clip150)" style="stroke:#000000; stroke-linecap:round; stroke-linejoin:round; stroke-width:4; stroke-opacity:1; fill:none" points="178.274,566.686 197.172,566.686 "/>
<polyline clip-path="url(#clip150)" style="stroke:#000000; stroke-linecap:round; stroke-linejoin:round; stroke-width:4; stroke-opacity:1; fill:none" points="178.274,321.666 197.172,321.666 "/>
<polyline clip-path="url(#clip150)" style="stroke:#000000; stroke-linecap:round; stroke-linejoin:round; stroke-width:4; stroke-opacity:1; fill:none" points="178.274,76.6465 197.172,76.6465 "/>
<path clip-path="url(#clip150)" d="M66.9365 1042.52 Q63.3254 1042.52 61.4967 1046.09 Q59.6912 1049.63 59.6912 1056.76 Q59.6912 1063.87 61.4967 1067.43 Q63.3254 1070.97 66.9365 1070.97 Q70.5707 1070.97 72.3763 1067.43 Q74.205 1063.87 74.205 1056.76 Q74.205 1049.63 72.3763 1046.09 Q70.5707 1042.52 66.9365 1042.52 M66.9365 1038.82 Q72.7467 1038.82 75.8022 1043.43 Q78.8809 1048.01 78.8809 1056.76 Q78.8809 1065.49 75.8022 1070.09 Q72.7467 1074.68 66.9365 1074.68 Q61.1264 1074.68 58.0477 1070.09 Q54.9921 1065.49 54.9921 1056.76 Q54.9921 1048.01 58.0477 1043.43 Q61.1264 1038.82 66.9365 1038.82 Z" fill="#000000" fill-rule="nonzero" fill-opacity="1" /><path clip-path="url(#clip150)" d="M87.0984 1068.13 L91.9827 1068.13 L91.9827 1074.01 L87.0984 1074.01 L87.0984 1068.13 Z" fill="#000000" fill-rule="nonzero" fill-opacity="1" /><path clip-path="url(#clip150)" d="M112.168 1042.52 Q108.557 1042.52 106.728 1046.09 Q104.922 1049.63 104.922 1056.76 Q104.922 1063.87 106.728 1067.43 Q108.557 1070.97 112.168 1070.97 Q115.802 1070.97 117.608 1067.43 Q119.436 1063.87 119.436 1056.76 Q119.436 1049.63 117.608 1046.09 Q115.802 1042.52 112.168 1042.52 M112.168 1038.82 Q117.978 1038.82 121.033 1043.43 Q124.112 1048.01 124.112 1056.76 Q124.112 1065.49 121.033 1070.09 Q117.978 1074.68 112.168 1074.68 Q106.358 1074.68 103.279 1070.09 Q100.223 1065.49 100.223 1056.76 Q100.223 1048.01 103.279 1043.43 Q106.358 1038.82 112.168 1038.82 Z" fill="#000000" fill-rule="nonzero" fill-opacity="1" /><path clip-path="url(#clip150)" d="M142.33 1042.52 Q138.719 1042.52 136.89 1046.09 Q135.084 1049.63 135.084 1056.76 Q135.084 1063.87 136.89 1067.43 Q138.719 1070.97 142.33 1070.97 Q145.964 1070.97 147.769 1067.43 Q149.598 1063.87 149.598 1056.76 Q149.598 1049.63 147.769 1046.09 Q145.964 1042.52 142.33 1042.52 M142.33 1038.82 Q148.14 1038.82 151.195 1043.43 Q154.274 1048.01 154.274 1056.76 Q154.274 1065.49 151.195 1070.09 Q148.14 1074.68 142.33 1074.68 Q136.519 1074.68 133.441 1070.09 Q130.385 1065.49 130.385 1056.76 Q130.385 1048.01 133.441 1043.43 Q136.519 1038.82 142.33 1038.82 Z" fill="#000000" fill-rule="nonzero" fill-opacity="1" /><path clip-path="url(#clip150)" d="M67.9319 797.504 Q64.3208 797.504 62.4921 801.069 Q60.6865 804.611 60.6865 811.74 Q60.6865 818.847 62.4921 822.412 Q64.3208 825.953 67.9319 825.953 Q71.5661 825.953 73.3717 822.412 Q75.2004 818.847 75.2004 811.74 Q75.2004 804.611 73.3717 801.069 Q71.5661 797.504 67.9319 797.504 M67.9319 793.801 Q73.742 793.801 76.7976 798.407 Q79.8763 802.991 79.8763 811.74 Q79.8763 820.467 76.7976 825.074 Q73.742 829.657 67.9319 829.657 Q62.1217 829.657 59.043 825.074 Q55.9875 820.467 55.9875 811.74 Q55.9875 802.991 59.043 798.407 Q62.1217 793.801 67.9319 793.801 Z" fill="#000000" fill-rule="nonzero" fill-opacity="1" /><path clip-path="url(#clip150)" d="M88.0938 823.106 L92.978 823.106 L92.978 828.986 L88.0938 828.986 L88.0938 823.106 Z" fill="#000000" fill-rule="nonzero" fill-opacity="1" /><path clip-path="url(#clip150)" d="M107.191 825.051 L123.51 825.051 L123.51 828.986 L101.566 828.986 L101.566 825.051 Q104.228 822.296 108.811 817.666 Q113.418 813.014 114.598 811.671 Q116.844 809.148 117.723 807.412 Q118.626 805.653 118.626 803.963 Q118.626 801.208 116.682 799.472 Q114.76 797.736 111.658 797.736 Q109.459 797.736 107.006 798.5 Q104.575 799.264 101.797 800.815 L101.797 796.092 Q104.621 794.958 107.075 794.379 Q109.529 793.801 111.566 793.801 Q116.936 793.801 120.131 796.486 Q123.325 799.171 123.325 803.662 Q123.325 805.791 122.515 807.713 Q121.728 809.611 119.621 812.203 Q119.043 812.875 115.941 816.092 Q112.839 819.287 107.191 825.051 Z" fill="#000000" fill-rule="nonzero" fill-opacity="1" /><path clip-path="url(#clip150)" d="M133.371 794.426 L151.728 794.426 L151.728 798.361 L137.654 798.361 L137.654 806.833 Q138.672 806.486 139.691 806.324 Q140.709 806.139 141.728 806.139 Q147.515 806.139 150.894 809.31 Q154.274 812.481 154.274 817.898 Q154.274 823.477 150.802 826.578 Q147.33 829.657 141.01 829.657 Q138.834 829.657 136.566 829.287 Q134.32 828.916 131.913 828.176 L131.913 823.477 Q133.996 824.611 136.219 825.166 Q138.441 825.722 140.918 825.722 Q144.922 825.722 147.26 823.615 Q149.598 821.509 149.598 817.898 Q149.598 814.287 147.26 812.18 Q144.922 810.074 140.918 810.074 Q139.043 810.074 137.168 810.49 Q135.316 810.907 133.371 811.787 L133.371 794.426 Z" fill="#000000" fill-rule="nonzero" fill-opacity="1" /><path clip-path="url(#clip150)" d="M66.9365 552.485 Q63.3254 552.485 61.4967 556.049 Q59.6912 559.591 59.6912 566.721 Q59.6912 573.827 61.4967 577.392 Q63.3254 580.934 66.9365 580.934 Q70.5707 580.934 72.3763 577.392 Q74.205 573.827 74.205 566.721 Q74.205 559.591 72.3763 556.049 Q70.5707 552.485 66.9365 552.485 M66.9365 548.781 Q72.7467 548.781 75.8022 553.387 Q78.8809 557.971 78.8809 566.721 Q78.8809 575.448 75.8022 580.054 Q72.7467 584.637 66.9365 584.637 Q61.1264 584.637 58.0477 580.054 Q54.9921 575.448 54.9921 566.721 Q54.9921 557.971 58.0477 553.387 Q61.1264 548.781 66.9365 548.781 Z" fill="#000000" fill-rule="nonzero" fill-opacity="1" /><path clip-path="url(#clip150)" d="M87.0984 578.086 L91.9827 578.086 L91.9827 583.966 L87.0984 583.966 L87.0984 578.086 Z" fill="#000000" fill-rule="nonzero" fill-opacity="1" /><path clip-path="url(#clip150)" d="M102.214 549.406 L120.57 549.406 L120.57 553.341 L106.496 553.341 L106.496 561.813 Q107.515 561.466 108.534 561.304 Q109.552 561.119 110.571 561.119 Q116.358 561.119 119.737 564.29 Q123.117 567.461 123.117 572.878 Q123.117 578.457 119.645 581.559 Q116.172 584.637 109.853 584.637 Q107.677 584.637 105.409 584.267 Q103.163 583.897 100.756 583.156 L100.756 578.457 Q102.839 579.591 105.061 580.147 Q107.284 580.702 109.76 580.702 Q113.765 580.702 116.103 578.596 Q118.441 576.489 118.441 572.878 Q118.441 569.267 116.103 567.161 Q113.765 565.054 109.76 565.054 Q107.885 565.054 106.01 565.471 Q104.159 565.887 102.214 566.767 L102.214 549.406 Z" fill="#000000" fill-rule="nonzero" fill-opacity="1" /><path clip-path="url(#clip150)" d="M142.33 552.485 Q138.719 552.485 136.89 556.049 Q135.084 559.591 135.084 566.721 Q135.084 573.827 136.89 577.392 Q138.719 580.934 142.33 580.934 Q145.964 580.934 147.769 577.392 Q149.598 573.827 149.598 566.721 Q149.598 559.591 147.769 556.049 Q145.964 552.485 142.33 552.485 M142.33 548.781 Q148.14 548.781 151.195 553.387 Q154.274 557.971 154.274 566.721 Q154.274 575.448 151.195 580.054 Q148.14 584.637 142.33 584.637 Q136.519 584.637 133.441 580.054 Q130.385 575.448 130.385 566.721 Q130.385 557.971 133.441 553.387 Q136.519 548.781 142.33 548.781 Z" fill="#000000" fill-rule="nonzero" fill-opacity="1" /><path clip-path="url(#clip150)" d="M67.9319 307.465 Q64.3208 307.465 62.4921 311.03 Q60.6865 314.571 60.6865 321.701 Q60.6865 328.807 62.4921 332.372 Q64.3208 335.914 67.9319 335.914 Q71.5661 335.914 73.3717 332.372 Q75.2004 328.807 75.2004 321.701 Q75.2004 314.571 73.3717 311.03 Q71.5661 307.465 67.9319 307.465 M67.9319 303.761 Q73.742 303.761 76.7976 308.368 Q79.8763 312.951 79.8763 321.701 Q79.8763 330.428 76.7976 335.034 Q73.742 339.618 67.9319 339.618 Q62.1217 339.618 59.043 335.034 Q55.9875 330.428 55.9875 321.701 Q55.9875 312.951 59.043 308.368 Q62.1217 303.761 67.9319 303.761 Z" fill="#000000" fill-rule="nonzero" fill-opacity="1" /><path clip-path="url(#clip150)" d="M88.0938 333.067 L92.978 333.067 L92.978 338.946 L88.0938 338.946 L88.0938 333.067 Z" fill="#000000" fill-rule="nonzero" fill-opacity="1" /><path clip-path="url(#clip150)" d="M101.983 304.386 L124.205 304.386 L124.205 306.377 L111.658 338.946 L106.774 338.946 L118.58 308.321 L101.983 308.321 L101.983 304.386 Z" fill="#000000" fill-rule="nonzero" fill-opacity="1" /><path clip-path="url(#clip150)" d="M133.371 304.386 L151.728 304.386 L151.728 308.321 L137.654 308.321 L137.654 316.794 Q138.672 316.446 139.691 316.284 Q140.709 316.099 141.728 316.099 Q147.515 316.099 150.894 319.27 Q154.274 322.442 154.274 327.858 Q154.274 333.437 150.802 336.539 Q147.33 339.618 141.01 339.618 Q138.834 339.618 136.566 339.247 Q134.32 338.877 131.913 338.136 L131.913 333.437 Q133.996 334.571 136.219 335.127 Q138.441 335.682 140.918 335.682 Q144.922 335.682 147.26 333.576 Q149.598 331.469 149.598 327.858 Q149.598 324.247 147.26 322.141 Q144.922 320.034 140.918 320.034 Q139.043 320.034 137.168 320.451 Q135.316 320.868 133.371 321.747 L133.371 304.386 Z" fill="#000000" fill-rule="nonzero" fill-opacity="1" /><path clip-path="url(#clip150)" d="M57.7467 89.9913 L65.3856 89.9913 L65.3856 63.6257 L57.0754 65.2924 L57.0754 61.0331 L65.3393 59.3665 L70.0152 59.3665 L70.0152 89.9913 L77.654 89.9913 L77.654 93.9265 L57.7467 93.9265 L57.7467 89.9913 Z" fill="#000000" fill-rule="nonzero" fill-opacity="1" /><path clip-path="url(#clip150)" d="M87.0984 88.0469 L91.9827 88.0469 L91.9827 93.9265 L87.0984 93.9265 L87.0984 88.0469 Z" fill="#000000" fill-rule="nonzero" fill-opacity="1" /><path clip-path="url(#clip150)" d="M112.168 62.4452 Q108.557 62.4452 106.728 66.0099 Q104.922 69.5516 104.922 76.6812 Q104.922 83.7876 106.728 87.3524 Q108.557 90.8941 112.168 90.8941 Q115.802 90.8941 117.608 87.3524 Q119.436 83.7876 119.436 76.6812 Q119.436 69.5516 117.608 66.0099 Q115.802 62.4452 112.168 62.4452 M112.168 58.7415 Q117.978 58.7415 121.033 63.3479 Q124.112 67.9312 124.112 76.6812 Q124.112 85.408 121.033 90.0144 Q117.978 94.5978 112.168 94.5978 Q106.358 94.5978 103.279 90.0144 Q100.223 85.408 100.223 76.6812 Q100.223 67.9312 103.279 63.3479 Q106.358 58.7415 112.168 58.7415 Z" fill="#000000" fill-rule="nonzero" fill-opacity="1" /><path clip-path="url(#clip150)" d="M142.33 62.4452 Q138.719 62.4452 136.89 66.0099 Q135.084 69.5516 135.084 76.6812 Q135.084 83.7876 136.89 87.3524 Q138.719 90.8941 142.33 90.8941 Q145.964 90.8941 147.769 87.3524 Q149.598 83.7876 149.598 76.6812 Q149.598 69.5516 147.769 66.0099 Q145.964 62.4452 142.33 62.4452 M142.33 58.7415 Q148.14 58.7415 151.195 63.3479 Q154.274 67.9312 154.274 76.6812 Q154.274 85.408 151.195 90.0144 Q148.14 94.5978 142.33 94.5978 Q136.519 94.5978 133.441 90.0144 Q130.385 85.408 130.385 76.6812 Q130.385 67.9312 133.441 63.3479 Q136.519 58.7415 142.33 58.7415 Z" fill="#000000" fill-rule="nonzero" fill-opacity="1" /><polyline clip-path="url(#clip152)" style="stroke:#090621; stroke-linecap:round; stroke-linejoin:round; stroke-width:4; stroke-opacity:1; fill:none" points="285.421,1038.88 240.781,1005.14 231.186,953.559 228.378,901.976 227.372,850.393 227.209,798.81 227.618,747.227 228.556,695.644 230.104,644.061 232.471,592.478 236.06,540.894 241.619,489.311 250.623,437.728 266.203,386.145 285.421,347.594 300.642,334.562 353.667,298.475 421.002,282.979 421.914,282.728 490.16,274.33 558.406,272.965 626.653,276.384 684.901,282.979 694.899,283.803 763.145,292.44 831.392,305.65 899.638,325.671 922.985,334.562 967.885,351.087 1032.81,386.145 1036.13,388.13 1101.75,437.728 1104.38,440.239 1150.76,489.311 1172.62,523.248 1184.39,540.894 1210.88,592.478 1228.35,644.061 1239.78,695.644 1240.87,703.201 1249.6,747.227 1254.12,798.81 1252.31,850.393 1241.2,901.976 1240.87,902.665 1220.37,953.559 1172.62,993.638 1155.38,1005.14 1104.38,1019.67 1036.13,1031.44 967.885,1038.25 899.638,1042.45 831.392,1045.16 763.145,1046.95 694.899,1048.12 626.653,1048.83 558.406,1049.14 490.16,1049.02 421.914,1048.26 353.667,1046.14 285.421,1038.88 "/>
<polyline clip-path="url(#clip152)" style="stroke:#1f0c47; stroke-linecap:round; stroke-linejoin:round; stroke-width:4; stroke-opacity:1; fill:none" points="285.421,1021.04 264.388,1005.14 245.197,953.559 239.582,901.976 237.571,850.393 237.243,798.81 238.063,747.227 239.938,695.644 243.033,644.061 247.769,592.478 254.945,540.894 266.064,489.311 284.071,437.728 285.421,434.518 328.952,386.145 353.667,365.992 421.914,342.6 487.097,334.562 490.16,334.102 558.406,332.277 593.214,334.562 626.653,336.268 694.899,344.082 763.145,356.979 831.392,376.707 856.154,386.145 899.638,402.696 964.399,437.728 967.885,439.834 1033.35,489.311 1036.13,491.945 1082.48,540.894 1104.38,573.762 1116.86,592.478 1142.97,644.061 1160.03,695.644 1170.37,747.227 1172.62,772.501 1175.65,798.81 1173.23,850.393 1172.62,852.708 1161.99,901.976 1131.04,953.559 1104.38,972.24 1040.38,1005.14 1036.13,1006.16 967.885,1019.77 899.638,1028.18 831.392,1033.6 763.145,1037.18 694.899,1039.52 626.653,1040.94 558.406,1041.56 490.16,1041.31 421.914,1039.79 353.667,1035.55 285.421,1021.04 "/>
<polyline clip-path="url(#clip152)" style="stroke:#3b0964; stroke-linecap:round; stroke-linejoin:round; stroke-width:4; stroke-opacity:1; fill:none" points="353.667,1024.96 289.178,1005.14 285.421,1002.3 259.208,953.559 250.786,901.976 247.769,850.393 247.278,798.81 248.507,747.227 251.32,695.644 255.963,644.061 263.066,592.478 273.83,540.894 285.421,502.375 292.851,489.311 332.291,437.728 353.667,417.062 421.914,388.68 437.755,386.145 490.16,376.707 558.406,374.663 626.653,379.782 665.154,386.145 694.899,390.478 763.145,406.127 831.392,430.063 848.354,437.728 899.638,462.415 941.754,489.311 967.885,509.061 1003.47,540.894 1036.13,579.657 1046.27,592.478 1077.94,644.061 1098.64,695.644 1104.38,718.126 1112.8,747.227 1119.57,798.81 1116.86,850.393 1104.38,890.002 1101.02,901.976 1063.47,953.559 1036.13,969.716 967.885,999.527 950.601,1005.14 899.638,1013.9 831.392,1022.04 763.145,1027.41 694.899,1030.92 626.653,1033.04 558.406,1033.97 490.16,1033.6 421.914,1031.32 353.667,1024.96 "/>
<polyline clip-path="url(#clip152)" style="stroke:#550f6d; stroke-linecap:round; stroke-linejoin:round; stroke-width:4; stroke-opacity:1; fill:none" points="353.667,1014.36 323.648,1005.14 285.421,976.249 273.219,953.559 261.99,901.976 257.967,850.393 257.312,798.81 258.951,747.227 262.701,695.644 268.892,644.061 278.363,592.478 285.421,564.4 296.072,540.894 328.545,489.311 353.667,460.638 398.222,437.728 421.914,426.438 490.16,412.879 558.406,410.675 626.653,416.195 694.899,428.836 726.131,437.728 763.145,448.057 831.392,475.594 857.104,489.311 899.638,514.928 933.993,540.894 967.885,573.043 986.034,592.478 1022.46,644.061 1036.13,672.037 1047.9,695.644 1064.62,747.227 1071.92,798.81 1069.01,850.393 1051.07,901.976 1036.13,919.883 1005.82,953.559 967.885,972.548 899.638,997.092 868.54,1005.14 831.392,1010.48 763.145,1017.64 694.899,1022.31 626.653,1025.15 558.406,1026.39 490.16,1025.89 421.914,1022.85 353.667,1014.36 "/>
<polyline clip-path="url(#clip152)" style="stroke:#6e186e; stroke-linecap:round; stroke-linejoin:round; stroke-width:4; stroke-opacity:1; fill:none" points="421.914,1014.38 360.888,1005.14 353.667,1003.15 288.063,953.559 285.421,948.101 273.194,901.976 268.165,850.393 267.347,798.81 269.395,747.227 274.083,695.644 281.822,644.061 285.421,626.486 297.451,592.478 323.648,540.894 353.667,500.344 370.817,489.311 421.914,460.565 490.16,445.941 558.406,443.564 626.653,449.518 694.899,463.15 763.145,485.652 771.565,489.311 831.392,517.438 868.54,540.894 899.638,564.4 930.672,592.478 967.885,637.697 972.725,644.061 1002.5,695.644 1020.53,747.227 1028.41,798.81 1025.27,850.393 1005.92,901.976 967.885,940.597 953.288,953.559 899.638,976.249 831.392,996.049 786.398,1005.14 763.145,1007.86 694.899,1013.71 626.653,1017.26 558.406,1018.8 490.16,1018.19 421.914,1014.38 "/>
<polyline clip-path="url(#clip152)" style="stroke:#88216a; stroke-linecap:round; stroke-linejoin:round; stroke-width:4; stroke-opacity:1; fill:none" points="421.914,1005.92 416.808,1005.14 353.667,987.682 308.522,953.559 285.421,905.835 284.398,901.976 278.363,850.393 277.381,798.81 279.839,747.227 285.421,696.015 285.485,695.644 299.045,644.061 319.788,592.478 351.224,540.894 353.667,537.595 421.914,492.814 435.745,489.311 490.16,475.594 558.406,472.741 626.653,479.886 667.398,489.311 694.899,495.651 763.145,520.341 803.106,540.894 831.392,557.584 877.557,592.478 899.638,613.857 926.831,644.061 959.497,695.644 967.885,716.43 980.355,747.227 989.808,798.81 986.034,850.393 967.885,891.522 963.251,901.976 904.004,953.559 899.638,955.406 831.392,979.167 763.145,994.844 694.899,1005.09 694.408,1005.14 626.653,1009.36 558.406,1011.22 490.16,1010.48 421.914,1005.92 "/>
<polyline clip-path="url(#clip152)" style="stroke:#a12b61; stroke-linecap:round; stroke-linejoin:round; stroke-width:4; stroke-opacity:1; fill:none" points="490.16,1001.68 421.914,993.906 353.667,972.218 328.981,953.559 300.287,901.976 290.006,850.393 288.334,798.81 292.52,747.227 302.105,695.644 317.925,644.061 342.124,592.478 353.667,573.813 394.44,540.894 421.914,522.601 490.16,503.881 558.406,500.838 626.653,508.46 694.899,525.911 732.562,540.894 763.145,554.295 825.16,592.478 831.392,597.188 881.908,644.061 899.638,667.176 919.462,695.644 942.55,747.227 952.634,798.81 948.608,850.393 923.841,901.976 899.638,922.742 856.086,953.559 831.392,962.284 763.145,980.575 694.899,992.532 626.653,999.776 558.406,1002.94 490.16,1001.68 "/>
<polyline clip-path="url(#clip152)" style="stroke:#ba3655; stroke-linecap:round; stroke-linejoin:round; stroke-width:4; stroke-opacity:1; fill:none" points="490.16,990.422 421.914,981.541 353.667,956.755 349.44,953.559 316.647,901.976 304.897,850.393 302.986,798.81 307.771,747.227 318.724,695.644 336.805,644.061 353.667,610.588 371.178,592.478 421.914,552.039 456.979,540.894 490.16,530.994 558.406,527.516 626.653,536.227 643.7,540.894 694.899,555.706 763.145,587.625 771.026,592.478 831.392,638.104 837.812,644.061 880.042,695.644 899.638,734.342 905.813,747.227 917.338,798.81 912.736,850.393 899.638,875.473 884.894,901.976 831.392,940.324 807.432,953.559 763.145,966.305 694.899,979.971 626.653,988.25 558.406,991.866 490.16,990.422 "/>
<polyline clip-path="url(#clip152)" style="stroke:#d04544; stroke-linecap:round; stroke-linejoin:round; stroke-width:4; stroke-opacity:1; fill:none" points="490.16,979.167 421.914,969.175 379.999,953.559 353.667,933.657 333.007,901.976 319.788,850.393 317.639,798.81 323.021,747.227 335.344,695.644 353.667,648.617 356.939,644.061 407.413,592.478 421.914,580.92 490.16,557.584 558.406,553.79 626.653,563.292 694.899,585.046 710.504,592.478 763.145,622.026 792.298,644.061 831.392,683.849 841.224,695.644 870.006,747.227 882.577,798.81 877.557,850.393 846.683,901.976 831.392,912.936 763.145,951.086 757.117,953.559 694.899,967.409 626.653,976.723 558.406,980.791 490.16,979.167 "/>
<polyline clip-path="url(#clip152)" style="stroke:#e35832; stroke-linecap:round; stroke-linejoin:round; stroke-width:4; stroke-opacity:1; fill:none" points="490.16,967.911 421.914,956.81 413.188,953.559 353.667,908.571 349.366,901.976 334.679,850.393 332.291,798.81 338.271,747.227 351.963,695.644 353.667,691.27 387.567,644.061 421.914,610.453 466.066,592.478 490.16,583.873 558.406,579.657 626.653,590.214 633.558,592.478 694.899,615.21 744.249,644.061 763.145,658.343 801.316,695.644 831.392,742.007 834.386,747.227 848.354,798.81 842.777,850.393 831.392,868.604 807.609,901.976 763.145,927.937 700.685,953.559 694.899,954.847 626.653,965.196 558.406,969.716 490.16,967.911 "/>
<polyline clip-path="url(#clip152)" style="stroke:#f0701e; stroke-linecap:round; stroke-linejoin:round; stroke-width:4; stroke-opacity:1; fill:none" points="490.16,956.656 471.609,953.559 421.914,938.773 373.23,901.976 353.667,864.414 349.57,850.393 346.943,798.81 353.521,747.227 353.667,746.683 377.864,695.644 418.194,644.061 421.914,640.421 490.16,610.826 558.406,606.015 626.653,618.065 691.265,644.061 694.899,645.874 760.746,695.644 763.145,698.39 797.539,747.227 813.481,798.81 807.116,850.393 767.96,901.976 763.145,904.787 694.899,935.271 627.372,953.559 626.653,953.669 558.406,958.641 490.16,956.656 "/>
<polyline clip-path="url(#clip152)" style="stroke:#f98c09; stroke-linecap:round; stroke-linejoin:round; stroke-width:4; stroke-opacity:1; fill:none" points="558.406,943.838 490.16,940.324 421.914,918.713 399.77,901.976 371.178,850.393 366.529,798.81 378.171,747.227 404.825,695.644 421.914,674.026 476.573,644.061 490.16,638.104 558.406,632.855 616.921,644.061 626.653,646.268 694.899,680.522 714.905,695.644 760.225,747.227 763.145,754.582 777.971,798.81 771.026,850.393 763.145,860.662 723.5,901.976 694.899,914.892 626.653,935.039 558.406,943.838 "/>
<polyline clip-path="url(#clip152)" style="stroke:#fbaa0e; stroke-linecap:round; stroke-linejoin:round; stroke-width:4; stroke-opacity:1; fill:none" points="558.406,925.872 490.16,922.065 430.844,901.976 421.914,895.227 395.335,850.393 390.299,798.81 402.911,747.227 421.914,712.296 441.968,695.644 490.16,668.326 558.406,661.855 626.653,678.062 660.452,695.644 694.899,721.68 718.16,747.227 739.603,798.81 731.041,850.393 694.899,886.818 672.867,901.976 626.653,916.339 558.406,925.872 "/>
<polyline clip-path="url(#clip152)" style="stroke:#f8c931; stroke-linecap:round; stroke-linejoin:round; stroke-width:4; stroke-opacity:1; fill:none" points="558.406,907.906 490.16,903.807 484.755,901.976 421.914,854.478 419.492,850.393 414.069,798.81 421.914,768.514 433.567,747.227 490.16,700.614 526.387,695.644 558.406,692.402 571.5,695.644 626.653,714.594 669.827,747.227 694.899,788.914 699.188,798.81 694.899,823.011 688.323,850.393 626.653,893.168 598.489,901.976 558.406,907.906 "/>
<polyline clip-path="url(#clip152)" style="stroke:#f1e864; stroke-linecap:round; stroke-linejoin:round; stroke-width:4; stroke-opacity:1; fill:none" points="626.653,855.183 558.406,877.525 490.16,868.604 466.066,850.393 454.263,798.81 483.823,747.227 490.16,742.007 558.406,732.051 600.59,747.227 626.653,766.926 646.731,798.81 633.558,850.393 626.653,855.183 "/>
<circle clip-path="url(#clip152)" cx="727.832" cy="828.351" r="14.4" fill="#e26f46" fill-rule="evenodd" fill-opacity="1" stroke="#000000" stroke-opacity="1" stroke-width="2.4"/>
<circle clip-path="url(#clip152)" cx="319.741" cy="712.7" r="14.4" fill="#e26f46" fill-rule="evenodd" fill-opacity="1" stroke="#000000" stroke-opacity="1" stroke-width="2.4"/>
<circle clip-path="url(#clip152)" cx="379.713" cy="544.685" r="14.4" fill="#e26f46" fill-rule="evenodd" fill-opacity="1" stroke="#000000" stroke-opacity="1" stroke-width="2.4"/>
<circle clip-path="url(#clip152)" cx="521.951" cy="983.063" r="14.4" fill="#e26f46" fill-rule="evenodd" fill-opacity="1" stroke="#000000" stroke-opacity="1" stroke-width="2.4"/>
<circle clip-path="url(#clip152)" cx="590.739" cy="552.257" r="14.4" fill="#e26f46" fill-rule="evenodd" fill-opacity="1" stroke="#000000" stroke-opacity="1" stroke-width="2.4"/>
<circle clip-path="url(#clip152)" cx="515.154" cy="880.509" r="14.4" fill="#e26f46" fill-rule="evenodd" fill-opacity="1" stroke="#000000" stroke-opacity="1" stroke-width="2.4"/>
<circle clip-path="url(#clip152)" cx="528.791" cy="400.684" r="14.4" fill="#e26f46" fill-rule="evenodd" fill-opacity="1" stroke="#000000" stroke-opacity="1" stroke-width="2.4"/>
<circle clip-path="url(#clip152)" cx="901.934" cy="414.085" r="14.4" fill="#e26f46" fill-rule="evenodd" fill-opacity="1" stroke="#000000" stroke-opacity="1" stroke-width="2.4"/>
<circle clip-path="url(#clip152)" cx="860.017" cy="594.89" r="14.4" fill="#e26f46" fill-rule="evenodd" fill-opacity="1" stroke="#000000" stroke-opacity="1" stroke-width="2.4"/>
<circle clip-path="url(#clip152)" cx="729.89" cy="649.229" r="14.4" fill="#e26f46" fill-rule="evenodd" fill-opacity="1" stroke="#000000" stroke-opacity="1" stroke-width="2.4"/>
<circle clip-path="url(#clip152)" cx="1080.18" cy="707.455" r="14.4" fill="#e26f46" fill-rule="evenodd" fill-opacity="1" stroke="#000000" stroke-opacity="1" stroke-width="2.4"/>
<circle clip-path="url(#clip152)" cx="432.916" cy="785.693" r="14.4" fill="#e26f46" fill-rule="evenodd" fill-opacity="1" stroke="#000000" stroke-opacity="1" stroke-width="2.4"/>
<circle clip-path="url(#clip152)" cx="469.153" cy="686.505" r="14.4" fill="#e26f46" fill-rule="evenodd" fill-opacity="1" stroke="#000000" stroke-opacity="1" stroke-width="2.4"/>
<circle clip-path="url(#clip152)" cx="578.103" cy="777.321" r="14.4" fill="#e26f46" fill-rule="evenodd" fill-opacity="1" stroke="#000000" stroke-opacity="1" stroke-width="2.4"/>
<circle clip-path="url(#clip152)" cx="989.072" cy="891.486" r="14.4" fill="#e26f46" fill-rule="evenodd" fill-opacity="1" stroke="#000000" stroke-opacity="1" stroke-width="2.4"/>
<circle clip-path="url(#clip152)" cx="814.274" cy="949.804" r="14.4" fill="#e26f46" fill-rule="evenodd" fill-opacity="1" stroke="#000000" stroke-opacity="1" stroke-width="2.4"/>
<circle clip-path="url(#clip152)" cx="609.395" cy="688.223" r="14.4" fill="#e26f46" fill-rule="evenodd" fill-opacity="1" stroke="#000000" stroke-opacity="1" stroke-width="2.4"/>
<circle clip-path="url(#clip152)" cx="316.069" cy="928.014" r="14.4" fill="#e26f46" fill-rule="evenodd" fill-opacity="1" stroke="#000000" stroke-opacity="1" stroke-width="2.4"/>
<circle clip-path="url(#clip152)" cx="647.939" cy="910.024" r="14.4" fill="#e26f46" fill-rule="evenodd" fill-opacity="1" stroke="#000000" stroke-opacity="1" stroke-width="2.4"/>
<circle clip-path="url(#clip152)" cx="850.398" cy="758.062" r="14.4" fill="#e26f46" fill-rule="evenodd" fill-opacity="1" stroke="#000000" stroke-opacity="1" stroke-width="2.4"/>
</svg>
